<svg width="66" height="66" viewBox="0 0 66 66" fill="none" xmlns="http://www.w3.org/2000/svg">
<path d="M65 63.9999L36.328 44.9999L50.664 35.9999L65 63.9999Z" fill="#F55951" stroke="#F55951" stroke-width="0.632911"/>
<path fill-rule="evenodd" clip-rule="evenodd" d="M48.616 33L1 65L32.744 1L48.616 33ZM25.064 38L32.5733 22L36.328 30L25.064 38Z" fill="#EDD2CB"/>
<path d="M1 65L0.716501 64.8594L0.186463 65.928L1.17651 65.2627L1 65ZM48.616 33L48.7925 33.2627L49.0228 33.1079L48.8995 32.8594L48.616 33ZM32.744 1L33.0275 0.859385L32.744 0.287815L32.4605 0.859385L32.744 1ZM32.5733 22L32.8598 21.8655L32.5733 21.2552L32.2868 21.8655L32.5733 22ZM25.064 38L24.7775 37.8655L24.2663 38.9546L25.2472 38.258L25.064 38ZM36.328 30L36.5112 30.258L36.7268 30.1049L36.6144 29.8655L36.328 30ZM1.17651 65.2627L48.7925 33.2627L48.4395 32.7373L0.823486 64.7373L1.17651 65.2627ZM32.4605 0.859385L0.716501 64.8594L1.2835 65.1406L33.0275 1.14062L32.4605 0.859385ZM48.8995 32.8594L33.0275 0.859385L32.4605 1.14062L48.3325 33.1406L48.8995 32.8594ZM32.2868 21.8655L24.7775 37.8655L25.3504 38.1345L32.8598 22.1344L32.2868 21.8655ZM36.6144 29.8655L32.8598 21.8655L32.2868 22.1344L36.0415 30.1344L36.6144 29.8655ZM25.2472 38.258L36.5112 30.258L36.1447 29.742L24.8807 37.742L25.2472 38.258Z" fill="#EDD2CB"/>
</svg>
