<svg width="153" height="68" viewBox="0 0 153 68" fill="none" xmlns="http://www.w3.org/2000/svg">
<path d="M64.5 65L36.5 46L50.5 37L64.5 65Z" fill="#F55951" stroke="#F55951"/>
<path fill-rule="evenodd" clip-rule="evenodd" d="M48.5 34L2 66L33 2L48.5 34ZM36.5 31L25.5 39L32.8333 23L36.5 31Z" fill="#EDD2CB"/>
<path d="M2 66L1.55001 65.782L0.725658 67.4839L2.28345 66.4119L2 66ZM48.5 34L48.7835 34.4119L49.1372 34.1685L48.95 33.782L48.5 34ZM33 2L33.45 1.78204L33 0.853023L32.55 1.78204L33 2ZM25.5 39L25.0455 38.7917L24.2499 40.5274L25.7941 39.4044L25.5 39ZM36.5 31L36.7941 31.4044L37.125 31.1637L36.9545 30.7917L36.5 31ZM32.8333 23L33.2879 22.7917L32.8333 21.8L32.3788 22.7917L32.8333 23ZM2.28345 66.4119L48.7835 34.4119L48.2165 33.5881L1.71655 65.5881L2.28345 66.4119ZM32.55 1.78204L1.55001 65.782L2.44999 66.218L33.45 2.21796L32.55 1.78204ZM48.95 33.782L33.45 1.78204L32.55 2.21796L48.05 34.218L48.95 33.782ZM25.7941 39.4044L36.7941 31.4044L36.2059 30.5956L25.2059 38.5956L25.7941 39.4044ZM32.3788 22.7917L25.0455 38.7917L25.9545 39.2083L33.2879 23.2083L32.3788 22.7917ZM36.9545 30.7917L33.2879 22.7917L32.3788 23.2083L36.0455 31.2083L36.9545 30.7917Z" fill="#EDD2CB"/>
<path d="M84.46 25.56H79.76L78.62 29H76.66L81.04 15.64H83.18L87.56 29H85.62L84.46 25.56ZM84.02 24.06L82.1 17.46L80.2 24.06H84.02ZM92.7909 27.74C94.4576 27.74 95.2909 26.4133 95.2909 23.76C95.2909 21.3867 94.6176 20.2 93.2709 20.2C92.5109 20.2 91.7109 20.4933 90.8709 21.08V27.46C91.5376 27.6467 92.1776 27.74 92.7909 27.74ZM90.7309 19.7C91.6109 19.02 92.5976 18.68 93.6909 18.68C94.7843 18.68 95.6376 19.1333 96.2509 20.04C96.8643 20.9467 97.1709 22.18 97.1709 23.74C97.1709 27.42 95.7043 29.26 92.7709 29.26C92.0776 29.26 91.4443 29.1267 90.8709 28.86V33.28L89.0709 33.48V18.86H90.5909L90.7309 19.7ZM103.143 27.74C104.809 27.74 105.643 26.4133 105.643 23.76C105.643 21.3867 104.969 20.2 103.623 20.2C102.863 20.2 102.063 20.4933 101.223 21.08V27.46C101.889 27.6467 102.529 27.74 103.143 27.74ZM101.083 19.7C101.963 19.02 102.949 18.68 104.043 18.68C105.136 18.68 105.989 19.1333 106.603 20.04C107.216 20.9467 107.523 22.18 107.523 23.74C107.523 27.42 106.056 29.26 103.123 29.26C102.429 29.26 101.796 29.1267 101.223 28.86V33.28L99.4225 33.48V18.86H100.943L101.083 19.7ZM109.614 27.16C110.494 27.5467 111.301 27.74 112.034 27.74C112.767 27.74 113.301 27.6067 113.634 27.34C113.981 27.06 114.154 26.72 114.154 26.32C114.154 25.9067 113.987 25.56 113.654 25.28C113.334 25 112.941 24.78 112.474 24.62C112.007 24.4467 111.534 24.2667 111.054 24.08C110.587 23.8933 110.187 23.6 109.854 23.2C109.534 22.7867 109.374 22.2733 109.374 21.66C109.374 20.7533 109.694 20.0333 110.334 19.5C110.974 18.9533 111.841 18.68 112.934 18.68C114.027 18.68 114.907 18.8733 115.574 19.26L115.154 20.6C114.381 20.3333 113.667 20.2 113.014 20.2C112.361 20.2 111.874 20.32 111.554 20.56C111.234 20.8 111.074 21.1267 111.074 21.54C111.074 21.94 111.241 22.2733 111.574 22.54C111.907 22.8067 112.307 23.02 112.774 23.18C113.254 23.34 113.727 23.52 114.194 23.72C114.661 23.9067 115.061 24.2 115.394 24.6C115.727 25 115.894 25.5 115.894 26.1C115.894 26.98 115.567 27.7267 114.914 28.34C114.261 28.9533 113.327 29.26 112.114 29.26C111.554 29.26 110.987 29.1867 110.414 29.04C109.854 28.8933 109.434 28.72 109.154 28.52L109.614 27.16ZM124.717 27.98C123.943 28.8333 122.93 29.26 121.677 29.26C120.423 29.26 119.423 28.84 118.677 28C117.93 27.16 117.557 25.8267 117.557 24C117.557 22.16 117.943 20.8133 118.717 19.96C119.503 19.1067 120.523 18.68 121.777 18.68C123.03 18.68 124.023 19.1 124.757 19.94C125.503 20.78 125.877 22.12 125.877 23.96C125.877 25.7867 125.49 27.1267 124.717 27.98ZM121.737 20.16C120.177 20.16 119.397 21.4333 119.397 23.98C119.397 26.5133 120.17 27.78 121.717 27.78C122.357 27.78 122.903 27.48 123.357 26.88C123.81 26.28 124.037 25.28 124.037 23.88C124.037 22.48 123.837 21.5133 123.437 20.98C123.05 20.4333 122.483 20.16 121.737 20.16ZM135.773 22.14V29H133.973V22.16C133.973 21.5467 133.893 21.0667 133.733 20.72C133.573 20.3733 133.246 20.2 132.753 20.2C132.273 20.2 131.766 20.3267 131.233 20.58C130.7 20.8333 130.273 21.1533 129.953 21.54V29H128.153V18.88H129.653L129.853 20.1C130.226 19.74 130.713 19.4133 131.313 19.12C131.926 18.8267 132.52 18.68 133.093 18.68C134.306 18.68 135.1 19.1733 135.473 20.16C135.873 19.7867 136.393 19.4467 137.033 19.14C137.673 18.8333 138.273 18.68 138.833 18.68C140.62 18.68 141.513 19.8067 141.513 22.06V29H139.713V22.16C139.713 21.5333 139.633 21.0533 139.473 20.72C139.313 20.3733 139 20.2 138.533 20.2C138.066 20.2 137.573 20.3267 137.053 20.58C136.533 20.8333 136.093 21.1267 135.733 21.46C135.76 21.62 135.773 21.8467 135.773 22.14ZM148.109 29.26C146.615 29.26 145.502 28.7533 144.769 27.74C144.049 26.7133 143.689 25.4333 143.689 23.9C143.689 22.3533 144.075 21.1 144.849 20.14C145.622 19.1667 146.682 18.68 148.029 18.68C149.162 18.68 150.022 19 150.609 19.64C151.209 20.2667 151.509 21.1 151.509 22.14C151.509 22.6067 151.409 23.2067 151.209 23.94H145.329C145.355 25.0733 145.602 25.9933 146.069 26.7C146.535 27.4067 147.229 27.76 148.149 27.76C149.082 27.76 149.962 27.5733 150.789 27.2L151.249 28.44C150.289 28.9867 149.242 29.26 148.109 29.26ZM149.869 22.48C149.869 21.76 149.722 21.1933 149.429 20.78C149.135 20.3667 148.729 20.16 148.209 20.16C147.689 20.16 147.255 20.2533 146.909 20.44C146.575 20.6133 146.315 20.84 146.129 21.12C145.809 21.6533 145.609 22.1467 145.529 22.6L149.869 22.64V22.48Z" fill="#EDD2CB"/>
<path d="M84.618 47.868C84.618 48.84 84.27 49.644 83.574 50.28C82.878 50.916 81.96 51.234 80.82 51.234C80.208 51.234 79.554 51.168 78.858 51.036C78.174 50.904 77.622 50.736 77.202 50.532L77.67 49.002C78.846 49.47 79.824 49.704 80.604 49.704C81.384 49.704 81.972 49.536 82.368 49.2C82.764 48.852 82.962 48.414 82.962 47.886C82.962 47.358 82.746 46.908 82.314 46.536C81.882 46.164 81.318 45.81 80.622 45.474C79.938 45.126 79.476 44.88 79.236 44.736C78.996 44.592 78.72 44.376 78.408 44.088C77.808 43.572 77.508 42.828 77.508 41.856C77.508 40.884 77.85 40.122 78.534 39.57C79.218 39.018 80.052 38.742 81.036 38.742C82.032 38.742 83.052 38.934 84.096 39.318L83.628 40.758C82.716 40.434 81.906 40.272 81.198 40.272C80.502 40.272 79.986 40.416 79.65 40.704C79.326 40.98 79.164 41.346 79.164 41.802C79.164 42.258 79.356 42.648 79.74 42.972C80.124 43.284 80.628 43.608 81.252 43.944C81.876 44.268 82.332 44.526 82.62 44.718C82.92 44.91 83.244 45.156 83.592 45.456C84.276 46.08 84.618 46.884 84.618 47.868ZM92.5962 50.082C91.9002 50.85 90.9882 51.234 89.8602 51.234C88.7322 51.234 87.8322 50.856 87.1602 50.1C86.4882 49.344 86.1522 48.144 86.1522 46.5C86.1522 44.844 86.5002 43.632 87.1962 42.864C87.9042 42.096 88.8222 41.712 89.9502 41.712C91.0782 41.712 91.9722 42.09 92.6322 42.846C93.3042 43.602 93.6402 44.808 93.6402 46.464C93.6402 48.108 93.2922 49.314 92.5962 50.082ZM89.9142 43.044C88.5102 43.044 87.8082 44.19 87.8082 46.482C87.8082 48.762 88.5042 49.902 89.8962 49.902C90.4722 49.902 90.9642 49.632 91.3722 49.092C91.7802 48.552 91.9842 47.652 91.9842 46.392C91.9842 45.132 91.8042 44.262 91.4442 43.782C91.0962 43.29 90.5862 43.044 89.9142 43.044ZM95.7068 38.4H97.3448V49.164C97.3448 49.632 97.5608 49.866 97.9928 49.866C98.3288 49.866 98.6828 49.806 99.0548 49.686L99.3248 50.874C98.8328 51.114 98.2268 51.234 97.5068 51.234C96.3068 51.234 95.7068 50.55 95.7068 49.182V38.4ZM103.026 51.234C102.042 51.234 101.358 50.97 100.974 50.442C100.59 49.902 100.398 49.134 100.398 48.138V41.892H102.018V48.102C102.018 48.702 102.096 49.146 102.252 49.434C102.408 49.71 102.72 49.848 103.188 49.848C103.668 49.848 104.13 49.776 104.574 49.632C105.03 49.476 105.402 49.266 105.69 49.002V41.946H107.31V51.162H105.996L105.816 50.19C105.468 50.478 105.042 50.724 104.538 50.928C104.034 51.132 103.53 51.234 103.026 51.234ZM112.902 51.234C111.966 51.234 111.348 51.042 111.048 50.658C110.748 50.262 110.598 49.59 110.598 48.642V43.17L108.816 43.08L108.978 42.018L110.634 41.892L110.796 39.732L112.254 39.462V41.892H114.918L114.756 43.17H112.236V48.804C112.236 49.056 112.242 49.248 112.254 49.38C112.278 49.5 112.344 49.614 112.452 49.722C112.572 49.818 112.824 49.866 113.208 49.866C113.592 49.866 113.976 49.8 114.36 49.668L114.666 50.874C114.102 51.114 113.514 51.234 112.902 51.234ZM118.016 51H116.378V41.964L118.016 41.802V51ZM116.054 39.21C116.054 38.91 116.162 38.658 116.378 38.454C116.594 38.238 116.852 38.13 117.152 38.13C117.452 38.13 117.704 38.238 117.908 38.454C118.124 38.658 118.232 38.91 118.232 39.21C118.232 39.51 118.124 39.774 117.908 40.002C117.704 40.218 117.452 40.326 117.152 40.326C116.852 40.326 116.594 40.218 116.378 40.002C116.162 39.774 116.054 39.51 116.054 39.21ZM126.487 50.082C125.791 50.85 124.879 51.234 123.751 51.234C122.623 51.234 121.723 50.856 121.051 50.1C120.379 49.344 120.043 48.144 120.043 46.5C120.043 44.844 120.391 43.632 121.087 42.864C121.795 42.096 122.713 41.712 123.841 41.712C124.969 41.712 125.863 42.09 126.523 42.846C127.195 43.602 127.531 44.808 127.531 46.464C127.531 48.108 127.183 49.314 126.487 50.082ZM123.805 43.044C122.401 43.044 121.699 44.19 121.699 46.482C121.699 48.762 122.395 49.902 123.787 49.902C124.363 49.902 124.855 49.632 125.263 49.092C125.671 48.552 125.875 47.652 125.875 46.392C125.875 45.132 125.695 44.262 125.335 43.782C124.987 43.29 124.477 43.044 123.805 43.044ZM136.527 44.754V51H134.907V44.844C134.907 44.292 134.835 43.86 134.691 43.548C134.547 43.236 134.253 43.08 133.809 43.08C133.377 43.08 132.903 43.2 132.387 43.44C131.883 43.668 131.487 43.95 131.199 44.286V51H129.579V41.892H130.929L131.109 42.99C131.445 42.666 131.895 42.372 132.459 42.108C133.035 41.844 133.587 41.712 134.115 41.712C135.015 41.712 135.639 41.982 135.987 42.522C136.347 43.05 136.527 43.794 136.527 44.754ZM138.769 49.344C139.561 49.692 140.287 49.866 140.947 49.866C141.607 49.866 142.087 49.746 142.387 49.506C142.699 49.254 142.855 48.948 142.855 48.588C142.855 48.216 142.705 47.904 142.405 47.652C142.117 47.4 141.763 47.202 141.343 47.058C140.923 46.902 140.497 46.74 140.065 46.572C139.645 46.404 139.285 46.14 138.985 45.78C138.697 45.408 138.553 44.946 138.553 44.394C138.553 43.578 138.841 42.93 139.417 42.45C139.993 41.958 140.773 41.712 141.757 41.712C142.741 41.712 143.533 41.886 144.133 42.234L143.755 43.44C143.059 43.2 142.417 43.08 141.829 43.08C141.241 43.08 140.803 43.188 140.515 43.404C140.227 43.62 140.083 43.914 140.083 44.286C140.083 44.646 140.233 44.946 140.533 45.186C140.833 45.426 141.193 45.618 141.613 45.762C142.045 45.906 142.471 46.068 142.891 46.248C143.311 46.416 143.671 46.68 143.971 47.04C144.271 47.4 144.421 47.85 144.421 48.39C144.421 49.182 144.127 49.854 143.539 50.406C142.951 50.958 142.111 51.234 141.019 51.234C140.515 51.234 140.005 51.168 139.489 51.036C138.985 50.904 138.607 50.748 138.355 50.568L138.769 49.344Z" fill="#F55951"/>
</svg>
