<svg width="56" height="56" viewBox="0 0 56 56" fill="none" xmlns="http://www.w3.org/2000/svg">
<g clip-path="url(#clip0)">
<path d="M25.4015 51.625C25.8845 51.625 26.2765 52.0161 26.2765 52.5C26.2765 52.9839 25.8845 53.375 25.4015 53.375H25.3927C24.9097 53.375 24.5229 52.9839 24.5229 52.5C24.5229 52.0161 24.9185 51.625 25.4015 51.625Z" fill="#F1E8E6"/>
<path d="M28 51.625H30.625C31.1089 51.625 31.5 52.0161 31.5 52.5C31.5 52.9839 31.1089 53.375 30.625 53.375H28C27.5161 53.375 27.125 52.9839 27.125 52.5C27.125 52.0161 27.5161 51.625 28 51.625Z" fill="#F1E8E6"/>
<path d="M43.75 6.125V50.7483C43.75 53.6401 41.4006 55.9912 38.5114 55.9974C38.5079 55.9974 38.5044 56 38.5 56H17.5C14.6046 56 12.25 53.6454 12.25 50.75V6.125C12.25 2.74837 14.9984 0 18.375 0H37.625C41.0016 0 43.75 2.74837 43.75 6.125ZM42 12.25H14V48.9983H42V12.25ZM14 10.5H28H42V9.625C42 7.21262 40.0374 5.25 37.625 5.25H28H18.375C15.9626 5.25 14 7.21262 14 9.625V10.5ZM17.5 54.25H38.4913C38.4948 54.25 38.4965 54.2482 38.5 54.2482C40.4303 54.2482 42 52.6785 42 50.7483H14V50.75C14 52.6803 15.5697 54.25 17.5 54.25ZM37.625 1.75H18.375C16.2593 1.75 14.4918 3.26025 14.0875 5.25875C15.1935 4.17287 16.7073 3.5 18.375 3.5H37.625C39.2927 3.5 40.8065 4.17287 41.9125 5.25875C41.5083 3.26025 39.7407 1.75 37.625 1.75Z" fill="#F1E8E6"/>
<path d="M25.375 7.875C25.375 6.42775 26.5527 5.25 28 5.25C29.4472 5.25 30.625 6.42775 30.625 7.875C30.625 9.32225 29.4472 10.5 28 10.5C26.5527 10.5 25.375 9.32225 25.375 7.875ZM28 8.75C28.483 8.75 28.875 8.358 28.875 7.875C28.875 7.392 28.483 7 28 7C27.517 7 27.125 7.392 27.125 7.875C27.125 8.358 27.517 8.75 28 8.75Z" fill="#F1E8E6"/>
<path d="M20.125 18.3767H35.875C38.2874 18.3767 40.25 20.3393 40.25 22.7517V38.5017C40.25 40.9141 38.2874 42.8767 35.875 42.8767H20.125C17.7126 42.8767 15.75 40.9141 15.75 38.5017V22.7517C15.75 20.3393 17.7126 18.3767 20.125 18.3767ZM17.5 38.5017C17.5 39.949 18.6777 41.1267 20.125 41.1267H35.875C37.3223 41.1267 38.5 39.949 38.5 38.5017V22.7517C38.5 21.3045 37.3223 20.1267 35.875 20.1267H20.125C18.6777 20.1267 17.5 21.3045 17.5 22.7517V38.5017Z" fill="#F1E8E6"/>
<path d="M24.5008 27.9982C24.7248 27.9982 24.9488 28.084 25.1194 28.2546C25.4616 28.5967 25.4616 29.1497 25.1194 29.4918L23.9889 30.6223L25.1194 31.7537C25.4616 32.0958 25.4616 32.6488 25.1194 32.991C24.7773 33.3331 24.2243 33.3331 23.8822 32.991L22.1331 31.241C21.7909 30.8988 21.7909 30.3458 22.1331 30.0037L23.8822 28.2546C24.0528 28.084 24.2768 27.9982 24.5008 27.9982Z" fill="#F1E8E6"/>
<path d="M30.8865 28.2546C31.0571 28.084 31.2811 27.9982 31.5051 27.9982C31.7291 27.9982 31.9531 28.084 32.1237 28.2546L33.8729 30.0037C34.215 30.3458 34.215 30.8988 33.8729 31.241L32.1237 32.991C31.7816 33.3331 31.2286 33.3331 30.8865 32.991C30.5444 32.6488 30.5444 32.0958 30.8865 31.7537L32.017 30.6223L30.8865 29.4918C30.5444 29.1497 30.5444 28.5967 30.8865 28.2546Z" fill="#F1E8E6"/>
<path d="M26.8512 27.1679C26.9431 27.1372 27.0367 27.1224 27.1277 27.1224C27.4943 27.1224 27.8364 27.3542 27.9581 27.7209L29.7063 32.9709C29.8594 33.4294 29.6118 33.9255 29.1533 34.0777C28.6922 34.2309 28.1987 33.9832 28.0464 33.5247L26.2973 28.2747C26.1451 27.8154 26.3927 27.3201 26.8512 27.1679Z" fill="#F1E8E6"/>
<path d="M28 21C33.3069 21 37.625 25.3181 37.625 30.625C37.625 35.9319 33.3069 40.25 28 40.25C22.6931 40.25 18.375 35.9319 18.375 30.625C18.375 25.3181 22.6931 21 28 21ZM28 38.5C32.3426 38.5 35.875 34.9676 35.875 30.625C35.875 26.2824 32.3426 22.75 28 22.75C23.6574 22.75 20.125 26.2824 20.125 30.625C20.125 34.9676 23.6574 38.5 28 38.5Z" fill="#F1E8E6"/>
</g>
<defs>
<clipPath id="clip0">
<rect width="56" height="56" transform="matrix(1 0 0 -1 0 56)" fill="white"/>
</clipPath>
</defs>
</svg>
