<svg width="24" height="24" viewBox="0 0 24 24" fill="none" xmlns="http://www.w3.org/2000/svg">
<path d="M10.1066 16.5428C10.5152 16.4355 10.8799 16.2707 11.1973 16.0457C11.5124 15.8228 11.7682 15.5338 11.9558 15.1774C12.1418 14.8254 12.235 14.4067 12.235 13.9205C12.235 13.3207 12.0923 12.8091 11.8012 12.3815C11.5113 11.9568 11.0744 11.6582 10.4843 11.4886C10.9176 11.2835 11.242 11.0197 11.4627 10.6978C11.6818 10.3756 11.7912 9.9724 11.7912 9.48973C11.7912 9.0436 11.7179 8.66608 11.5718 8.36473C11.4221 8.05874 11.213 7.81595 10.9461 7.63329C10.6749 7.45081 10.3536 7.31763 9.97763 7.2378C9.59915 7.15584 9.18529 7.11621 8.72679 7.11621H4.2063V16.7042H8.85359C9.2831 16.7042 9.70276 16.6503 10.1066 16.5428ZM6.31751 8.74939H8.29264C8.47937 8.74939 8.66165 8.76273 8.83562 8.79675C9.01268 8.8271 9.16519 8.88354 9.30031 8.96512C9.43639 9.0434 9.54425 9.15552 9.62563 9.29856C9.7043 9.4416 9.74335 9.626 9.74335 9.84907C9.74335 10.2509 9.62563 10.5438 9.38285 10.721C9.13755 10.9012 8.82769 10.9899 8.45385 10.9899H6.31751V8.74939ZM6.31751 15.0712V12.431H8.61255C9.067 12.431 9.43639 12.5355 9.71339 12.7457C9.99 12.9587 10.129 13.3095 10.129 13.8038C10.129 14.0558 10.0882 14.2646 10.0028 14.4252C9.9179 14.5872 9.80095 14.7148 9.65965 14.8078C9.51854 14.9044 9.35114 14.9699 9.16229 15.0111C8.97634 15.0527 8.77859 15.0712 8.57022 15.0712H6.31751Z" fill="black"/>
<path d="M13.8115 15.8745C14.1219 16.1969 14.4909 16.4446 14.9326 16.621C15.3745 16.7954 15.8666 16.8839 16.4135 16.8839C17.1981 16.8839 17.8715 16.7042 18.4238 16.3435C18.9822 15.9843 19.3918 15.3878 19.6617 14.552H17.9825C17.9173 14.7669 17.7492 14.9739 17.473 15.1674C17.1942 15.3613 16.8617 15.4585 16.4771 15.4585C15.9424 15.4585 15.5295 15.3182 15.244 15.0393C14.9576 14.7603 14.772 14.2408 14.772 13.692H19.7815C19.8175 13.1534 19.7738 12.6389 19.6489 12.1464C19.5231 11.6531 19.3219 11.2133 19.0389 10.8286C18.7559 10.4436 18.3956 10.1357 17.9562 9.90873C17.5153 9.67851 17.0007 9.56543 16.4135 9.56543C15.8815 9.56543 15.4012 9.65995 14.9657 9.84803C14.5302 10.0365 14.1561 10.2947 13.8407 10.6222C13.526 10.9477 13.2869 11.3357 13.1137 11.7855C12.944 12.2337 12.8572 12.7185 12.8572 13.2377C12.8572 13.7745 12.9409 14.2699 13.1065 14.7176C13.2739 15.1676 13.509 15.5505 13.8115 15.8745ZM14.859 12.0327C14.9077 11.8593 14.9916 11.6973 15.1147 11.5437C15.2384 11.3925 15.4002 11.2641 15.5974 11.1611C15.7994 11.0565 16.0514 11.0053 16.3561 11.0053C16.8244 11.0053 17.2085 11.141 17.4349 11.3917C17.6624 11.6446 17.8288 12.0039 17.8744 12.4902H14.7718C14.7807 12.3547 14.8099 12.2014 14.859 12.0327V12.0327Z" fill="black"/>
<path d="M14.3821 7.75928H18.2686V8.70548H14.3821V7.75928Z" fill="black"/>
<path d="M0 0V24H24V0H0ZM22.5155 22.5155H1.48454V1.48454H22.5155V22.5155Z" fill="black"/>
</svg>
