<svg width="56" height="57" viewBox="0 0 56 57" fill="none" xmlns="http://www.w3.org/2000/svg">
<g clip-path="url(#clip0)">
<path d="M51.8 0.0819092H4.2C1.88442 0.0819092 0 1.97101 0 4.29233V52.0104C0 54.3318 1.88442 56.2209 4.2 56.2209H51.8C54.1156 56.2209 56 54.3318 56 52.0104V4.29233C56 1.97101 54.1156 0.0819092 51.8 0.0819092ZM54.1333 52.0104C54.1333 53.3007 53.087 54.3495 51.8 54.3495H4.2C2.91386 54.3495 1.8667 53.3007 1.8667 52.0104V4.29233C1.8667 3.00201 2.91386 1.95324 4.2 1.95324H51.8C53.0861 1.95324 54.1333 3.00212 54.1333 4.29233V52.0104Z" fill="#F1E8E6"/>
<path d="M8.39999 3.82458H4.6667C4.15154 3.82458 3.7334 4.24278 3.7334 4.7602V8.50287C3.7334 9.02029 4.15154 9.43848 4.6667 9.43848H8.39999C8.91515 9.43848 9.33329 9.02029 9.33329 8.50287V4.76031C9.33329 4.24289 8.91515 3.82458 8.39999 3.82458ZM7.4667 7.56725H5.59999V5.69592H7.4667V7.56725Z" fill="#F1E8E6"/>
<path d="M15.8668 3.82458H12.1335C11.6183 3.82458 11.2002 4.24278 11.2002 4.7602V8.50287C11.2002 9.02029 11.6183 9.43848 12.1335 9.43848H15.8668C16.3819 9.43848 16.8001 9.02029 16.8001 8.50287V4.76031C16.8001 4.24289 16.3819 3.82458 15.8668 3.82458ZM14.9334 7.56725H13.0667V5.69592H14.9334V7.56725Z" fill="#F1E8E6"/>
<path d="M23.3331 3.82458H19.5998C19.0846 3.82458 18.6665 4.24278 18.6665 4.7602V8.50287C18.6665 9.02029 19.0846 9.43848 19.5998 9.43848H23.3331C23.8482 9.43848 24.2664 9.02029 24.2664 8.50287V4.76031C24.2665 4.24289 23.8484 3.82458 23.3331 3.82458ZM22.3998 7.56725H20.5331V5.69592H22.3998V7.56725Z" fill="#F1E8E6"/>
<path d="M51.8 0.0819092H4.2C1.88442 0.0819092 0 1.97101 0 4.29233V12.2453C0 12.7627 0.418141 13.1809 0.933297 13.1809H55.0666C55.5818 13.1809 55.9999 12.7627 55.9999 12.2453V4.29233C56 1.97101 54.1156 0.0819092 51.8 0.0819092ZM54.1333 11.3097H1.8667V4.29233C1.8667 3.00201 2.91386 1.95324 4.2 1.95324H51.8C53.0861 1.95324 54.1333 3.00212 54.1333 4.29233V11.3097Z" fill="#F1E8E6"/>
<path d="M13.0665 42.1862H5.5998C5.08464 42.1862 4.6665 42.6043 4.6665 43.1218V50.607C4.6665 51.1244 5.08464 51.5426 5.5998 51.5426H13.0665C13.5817 51.5426 13.9998 51.1244 13.9998 50.607V43.1218C13.9998 42.6043 13.5817 42.1862 13.0665 42.1862ZM12.1331 49.6714H6.5331V44.0575H12.1331V49.6714Z" fill="#F1E8E6"/>
<path d="M25.1998 42.1862H17.7331C17.2179 42.1862 16.7998 42.6043 16.7998 43.1218V50.607C16.7998 51.1244 17.2179 51.5426 17.7331 51.5426H25.1998C25.715 51.5426 26.1331 51.1244 26.1331 50.607V43.1218C26.1331 42.6043 25.715 42.1862 25.1998 42.1862ZM24.2665 49.6714H18.6665V44.0575H24.2665V49.6714Z" fill="#F1E8E6"/>
<path d="M37.3331 42.1862H29.8664C29.3512 42.1862 28.9331 42.6043 28.9331 43.1218V50.607C28.9331 51.1244 29.3512 51.5426 29.8664 51.5426H37.3331C37.8483 51.5426 38.2664 51.1244 38.2664 50.607V43.1218C38.2665 42.6043 37.8484 42.1862 37.3331 42.1862ZM36.3998 49.6714H30.7998V44.0575H36.3998V49.6714Z" fill="#F1E8E6"/>
<path d="M49.4669 42.1862H42.0002C41.485 42.1862 41.0669 42.6043 41.0669 43.1218V50.607C41.0669 51.1244 41.485 51.5426 42.0002 51.5426H49.4669C49.982 51.5426 50.4002 51.1244 50.4002 50.607V43.1218C50.4002 42.6043 49.982 42.1862 49.4669 42.1862ZM48.5335 49.6714H42.9335V44.0575H48.5335V49.6714Z" fill="#F1E8E6"/>
<path d="M49.4665 15.988H5.5998C5.08464 15.988 4.6665 16.4062 4.6665 16.9237V39.3792C4.6665 39.8967 5.08464 40.3149 5.5998 40.3149H49.4665C49.9817 40.3149 50.3998 39.8967 50.3998 39.3792V16.9237C50.3998 16.4062 49.9817 15.988 49.4665 15.988ZM48.5331 38.4436H6.5331V17.8593H48.5331V38.4436Z" fill="#F1E8E6"/>
<path d="M28.0001 19.7306C23.3689 19.7306 19.6001 23.5078 19.6001 28.1514C19.6001 32.7951 23.3689 36.5723 28.0001 36.5723C32.6313 36.5723 36.4001 32.7951 36.4001 28.1514C36.4001 23.5078 32.6313 19.7306 28.0001 19.7306ZM28.0001 34.7009C24.3974 34.7009 21.4668 31.7621 21.4668 28.1514C21.4668 24.5408 24.3975 21.6019 28.0001 21.6019C31.6027 21.6019 34.5334 24.5408 34.5334 28.1514C34.5334 31.7621 31.6028 34.7009 28.0001 34.7009Z" fill="#F1E8E6"/>
<path d="M27.7263 29.3612L25.8596 27.4899C25.4947 27.124 24.9047 27.124 24.5399 27.4899C24.1749 27.8556 24.1749 28.4471 24.5399 28.8129L26.4066 30.6842C26.5886 30.8666 26.8275 30.9583 27.0664 30.9583C27.3054 30.9583 27.5443 30.8666 27.7263 30.6842C28.0912 30.3183 28.0912 29.727 27.7263 29.3612Z" fill="#F1E8E6"/>
<path d="M31.3832 24.6136C30.9819 24.2908 30.3939 24.3563 30.0719 24.7596L26.3386 29.4379C26.0166 29.8411 26.081 30.4296 26.4842 30.7534C26.6559 30.8919 26.8622 30.9583 27.0666 30.9583C27.3392 30.9583 27.6108 30.8376 27.7956 30.6075L31.5289 25.9292C31.8509 25.5259 31.7865 24.9374 31.3832 24.6136Z" fill="#F1E8E6"/>
</g>
<defs>
<clipPath id="clip0">
<rect y="0.0819092" width="56" height="56.139" fill="white"/>
</clipPath>
</defs>
</svg>
