<svg width="12" height="12" viewBox="0 0 12 12" fill="none" xmlns="http://www.w3.org/2000/svg">
<path d="M7.32166 6.0012L11.8083 1.51437C11.9317 1.39086 11.9998 1.22608 12 1.05037C12 0.874563 11.9319 0.709587 11.8083 0.58627L11.4151 0.193197C11.2915 0.0693918 11.1267 0.00158691 10.9508 0.00158691C10.7752 0.00158691 10.6104 0.0693918 10.4868 0.193197L6.0002 4.67973L1.51337 0.193197C1.38995 0.0693918 1.22507 0.00158691 1.04927 0.00158691C0.873659 0.00158691 0.70878 0.0693918 0.585366 0.193197L0.192 0.58627C-0.064 0.84227 -0.064 1.25866 0.192 1.51437L4.67873 6.0012L0.192 10.4878C0.0684878 10.6115 0.000487805 10.7763 0.000487805 10.952C0.000487805 11.1277 0.0684878 11.2925 0.192 11.4161L0.585268 11.8092C0.708683 11.9329 0.873658 12.0008 1.04917 12.0008C1.22498 12.0008 1.38985 11.9329 1.51327 11.8092L6.0001 7.32256L10.4867 11.8092C10.6103 11.9329 10.7751 12.0008 10.9507 12.0008H10.9509C11.1266 12.0008 11.2914 11.9329 11.415 11.8092L11.8082 11.4161C11.9316 11.2926 11.9997 11.1277 11.9997 10.952C11.9997 10.7763 11.9316 10.6115 11.8082 10.4879L7.32166 6.0012Z" fill="#361D32"/>
</svg>
