<svg width="44" height="50" viewBox="0 0 44 50" fill="none" xmlns="http://www.w3.org/2000/svg">
<path d="M23.0199 1.35864L21.8363 4.47282C21.7429 4.7185 21.5581 4.91611 21.3227 5.02203L17.8421 6.58879C17.6067 6.6948 17.3399 6.70051 17.1004 6.60465L15.0581 5.78781C14.3782 5.51591 14.226 4.60262 14.7752 4.10971C16.2491 2.7867 17.942 1.66913 19.8304 0.819003C20.4904 0.521861 21.1574 0.265151 21.8292 0.0475181C22.6033 -0.203195 23.3148 0.582799 23.0199 1.35864V1.35864Z" fill="#D67F4F"/>
<path d="M23.02 1.35792L21.8366 4.47287C21.7424 4.71798 21.5578 4.91626 21.3226 5.02189L17.8417 6.58836C17.6065 6.69495 17.3403 6.69998 17.1004 6.60432L15.7363 6.0583L18.0388 5.02199C18.274 4.91636 18.4596 4.71807 18.5528 4.47297L19.7362 1.35801C19.8042 1.18062 19.8188 1.00226 19.7916 0.836856C19.8042 0.830859 19.8178 0.824959 19.8304 0.818962C20.4901 0.522014 21.1575 0.264917 21.8289 0.0476708C22.6032 -0.203526 23.3143 0.582758 23.02 1.35792V1.35792Z" fill="#C76D3D"/>
<path d="M39.3259 29.3565C39.3259 40.4938 30.5229 49.5236 19.663 49.5237C8.77655 49.5238 0.0064164 40.5345 3.48041e-06 29.3688C-0.0047119 21.1506 4.78244 14.0794 11.6534 10.9327C12.0186 10.7655 12.447 10.8502 12.7297 11.1402L14.8961 13.362C15.0778 13.5484 15.3244 13.6531 15.5815 13.6531H19.3827C19.6398 13.6531 19.8863 13.7579 20.0681 13.9443L23.3009 17.2599C23.4826 17.4464 23.7292 17.5511 23.9863 17.5511L27.6708 17.5467C28.0125 17.5463 28.3292 17.7305 28.5043 18.0315L29.4542 19.6643C29.6172 19.9446 29.9042 20.125 30.2217 20.1469L36.8243 20.6004C37.1824 20.625 37.4995 20.8499 37.6451 21.1863C38.7254 23.6832 39.3259 26.4478 39.3259 29.3565V29.3565Z" fill="#D67F4F"/>
<path d="M39.3244 29.3566C39.3244 40.494 30.5222 49.5238 19.6624 49.5238C19.1087 49.5238 18.5607 49.5009 18.0186 49.4541C28.1109 48.6001 36.0416 39.9281 36.0416 29.3567C36.0416 26.4481 35.4402 23.683 34.3599 21.1869C34.2151 20.8501 33.8974 20.6249 33.5399 20.6009L26.9373 20.1475C26.6196 20.1256 26.3321 19.9453 26.1698 19.6643L25.2197 18.0321C25.0594 17.7561 24.7796 17.5788 24.4706 17.5508L27.6699 17.5469C28.0109 17.5469 28.3276 17.7312 28.5035 18.0321L29.4527 19.6643C29.6159 19.9453 29.9035 20.1257 30.2202 20.1475L36.8227 20.6009C37.1812 20.6248 37.498 20.85 37.6437 21.1869C38.724 23.6829 39.3244 26.4481 39.3244 29.3566Z" fill="#C76D3D"/>
<path d="M37.8241 6.05332L35.0986 8.84869C34.9169 9.03508 34.6703 9.13983 34.4132 9.13983H30.5839C30.3268 9.13983 30.0803 9.03508 29.8985 8.84869L27.0671 5.94469C26.6886 5.55653 26.6885 4.92714 27.067 4.53888L29.9367 1.59484C30.1743 1.35109 30.5186 1.24962 30.8455 1.32962C33.3551 1.94354 35.6774 3.05182 37.7106 4.54759C38.194 4.90315 38.2446 5.62202 37.8241 6.05332V6.05332Z" fill="#D67F4F"/>
<path d="M37.8246 6.05312L35.0994 8.84917C34.9168 9.03547 34.671 9.14012 34.4135 9.14012H31.1297C31.3872 9.14012 31.634 9.03547 31.8156 8.84917L34.5408 6.05312C34.9616 5.62163 34.911 4.90324 34.4272 4.54749C32.9553 3.46435 31.3309 2.58444 29.5938 1.94779L29.9377 1.59503C30.1748 1.3509 30.5197 1.24924 30.8461 1.33C33.3556 1.94382 35.6775 3.05191 37.711 4.54758C38.1948 4.90324 38.2453 5.62163 37.8246 6.05312V6.05312Z" fill="#C76D3D"/>
<path d="M41.9497 18.0787L37.9858 14.2539C37.754 14.0302 37.644 13.704 37.6915 13.3812L37.9383 11.7079C38.0046 11.2577 38.3607 10.9113 38.8024 10.867L42.4955 10.497C43.0059 10.4458 43.4677 10.8111 43.5479 11.3306C43.8627 13.3705 43.8732 15.4561 43.5717 17.5097C43.4558 18.2994 42.5169 18.626 41.9497 18.0787V18.0787Z" fill="#D67F4F"/>
<path d="M43.5728 17.5098C43.4562 18.3 42.5177 18.6258 41.9503 18.0787L40.9283 17.0933C41.1702 15.1751 41.1411 13.2331 40.8477 11.3309C40.8079 11.0708 40.6718 10.8496 40.4824 10.6991L42.4965 10.4969C43.0065 10.4461 43.469 10.8117 43.5486 11.3309C43.8633 13.3705 43.8739 15.4561 43.5728 17.5098V17.5098Z" fill="#C76D3D"/>
<path d="M26.0631 12.7105L25.6845 12.833C25.174 12.9983 24.6296 12.7078 24.4684 12.1842L23.928 10.4284C23.7669 9.90484 24.0502 9.34644 24.5606 9.18114L24.9392 9.05859C25.4497 8.89328 25.9941 9.18385 26.1553 9.70743L26.6957 11.4632C26.8568 11.9868 26.5736 12.5452 26.0631 12.7105Z" fill="#9D552E"/>
<path d="M10.9515 27.6129L8.78926 27.3883C8.3926 27.3471 8.06083 27.0615 7.95228 26.668L7.18047 23.8694C7.03712 23.3497 7.32362 22.8075 7.82628 22.6469L10.3553 21.8386C10.7294 21.7191 11.1367 21.8416 11.3886 22.1494L12.9804 24.0948C13.2544 24.4295 13.2836 24.9084 13.0525 25.2756L11.8658 27.1618C11.6678 27.4764 11.3146 27.6506 10.9515 27.6129V27.6129Z" fill="#9D552E"/>
<path d="M13.0524 25.2755L11.8651 27.1618C11.6679 27.4767 11.3143 27.6501 10.9509 27.6132L8.94856 27.4049C9.03212 27.3382 9.10596 27.2564 9.16519 27.1617L10.3515 25.2754C10.5827 24.9077 10.5536 24.4294 10.2796 24.0947L8.83105 22.3259L10.3553 21.8386C10.7294 21.7191 11.1365 21.8416 11.3881 22.1495L12.9805 24.0946C13.2545 24.4295 13.2836 24.9078 13.0524 25.2755V25.2755Z" fill="#8E4D29"/>
<path d="M16.6368 36.4122L16.4178 38.6299C16.3777 39.0367 16.0993 39.377 15.7156 39.4884L12.9869 40.28C12.4802 40.427 11.9516 40.1331 11.795 39.6176L11.0069 37.0237C10.8904 36.6401 11.0099 36.2223 11.3099 35.964L13.2067 34.3313C13.5331 34.0503 14 34.0204 14.358 34.2573L16.1971 35.4745C16.5037 35.6776 16.6736 36.0397 16.6368 36.4122Z" fill="#9D552E"/>
<path d="M16.6375 36.4119L16.418 38.63C16.3782 39.0365 16.0993 39.3763 15.7165 39.488L12.9875 40.2792C12.5503 40.4068 12.0965 40.2055 11.8809 39.8168L13.0157 39.4881C13.3994 39.3764 13.6773 39.0366 13.7171 38.6301L13.9367 36.412C13.9735 36.0393 13.8036 35.6777 13.4965 35.4743L12.5823 34.8695L13.207 34.3314C13.5334 34.0504 13.9998 34.0205 14.3583 34.2567L16.1974 35.4743C16.5044 35.6775 16.6744 36.0392 16.6375 36.4119Z" fill="#8E4D29"/>
<path d="M29.6612 28.3985L29.4058 30.985C29.3589 31.4594 29.0342 31.8564 28.5868 31.9861L25.4044 32.9092C24.8135 33.0806 24.197 32.738 24.0143 32.1367L23.0953 29.1116C22.9594 28.6642 23.0987 28.1769 23.4487 27.8757L25.6607 25.9717C26.0414 25.644 26.5858 25.609 27.0034 25.8854L29.1483 27.3049C29.506 27.5417 29.7041 27.9641 29.6612 28.3985V28.3985Z" fill="#9D552E"/>
<path d="M29.6629 28.3996L29.4075 30.9863C29.3609 31.4607 29.0364 31.8573 28.5885 31.9877L25.4067 32.9104C24.9404 33.0459 24.4575 32.8606 24.1855 32.481L25.8886 31.9877C26.3356 31.8572 26.6601 31.4606 26.7076 30.9863L26.9622 28.3996C27.0059 27.9652 26.8077 27.5426 26.4492 27.3065L25.1299 26.4326L25.6633 25.9732C26.0431 25.6454 26.5881 25.6105 27.0059 25.8866L29.1501 27.3065C29.5074 27.5426 29.7057 27.9651 29.6629 28.3996V28.3996Z" fill="#8E4D29"/>
<path d="M32.7708 41.3641L34.145 43.0911C34.3971 43.4079 34.4348 43.8505 34.2403 44.2073L32.8565 46.746C32.5996 47.2174 32.0232 47.3931 31.557 47.1421L29.2115 45.8794C28.8646 45.6928 28.661 45.3106 28.6951 44.9103L28.9107 42.3804C28.9478 41.9449 29.2572 41.5852 29.6738 41.493L31.8135 41.0199C32.1702 40.9411 32.54 41.074 32.7708 41.3641V41.3641Z" fill="#9D552E"/>
<path d="M34.2364 44.2069L32.8529 46.7459C32.5964 47.2172 32.0194 47.3926 31.553 47.1415L30.3036 46.4689L31.5365 44.2069C31.7308 43.8502 31.693 43.4078 31.4403 43.0909L30.0947 41.399L31.8095 41.0203C32.167 40.9406 32.5363 41.0741 32.7675 41.3641L34.1413 43.0909C34.3938 43.4078 34.4317 43.8502 34.2364 44.2069V44.2069Z" fill="#8E4D29"/>
<path d="M26.7848 38.2368H25.7491C25.3467 38.2368 25.0205 37.9022 25.0205 37.4895C25.0205 37.0768 25.3467 36.7422 25.7491 36.7422H26.7848C27.1872 36.7422 27.5134 37.0768 27.5134 37.4895C27.5134 37.9022 27.1872 38.2368 26.7848 38.2368Z" fill="#C76D3D"/>
<path d="M19.0128 43.0808C18.6104 43.0808 18.2842 42.7462 18.2842 42.3335V41.2712C18.2842 40.8584 18.6104 40.5239 19.0128 40.5239C19.4152 40.5239 19.7414 40.8585 19.7414 41.2712V42.3335C19.7414 42.7463 19.4152 43.0808 19.0128 43.0808V43.0808Z" fill="#8E4D29"/>
<path d="M15.6452 21.1025H14.6095C14.2071 21.1025 13.8809 20.7679 13.8809 20.3552C13.8809 19.9424 14.2071 19.6079 14.6095 19.6079H15.6452C16.0476 19.6079 16.3738 19.9425 16.3738 20.3552C16.3738 20.7679 16.0476 21.1025 15.6452 21.1025Z" fill="#C76D3D"/>
<path d="M10.5958 17.6805C10.4094 17.6805 10.2229 17.6074 10.0806 17.4616C9.7961 17.1698 9.79601 16.6966 10.0805 16.4047L10.8128 15.6535C11.0975 15.3616 11.5587 15.3617 11.8433 15.6534C12.1279 15.9452 12.128 16.4184 11.8433 16.7103L11.111 17.4615C10.9687 17.6074 10.7823 17.6805 10.5958 17.6805Z" fill="#9D552E"/>
<path d="M33.4564 30.0742H33.4464C33.044 30.0742 32.7178 29.7396 32.7178 29.3269C32.7178 28.9142 33.044 28.5796 33.4464 28.5796H33.4564C33.8588 28.5796 34.185 28.9142 34.185 29.3269C34.185 29.7396 33.8588 30.0742 33.4564 30.0742Z" fill="#C76D3D"/>
<path d="M14.2669 29.6557H14.2569C13.8545 29.6557 13.5283 29.3212 13.5283 28.9084C13.5283 28.4957 13.8545 28.1611 14.2569 28.1611H14.2669C14.6693 28.1611 14.9956 28.4957 14.9956 28.9084C14.9956 29.3212 14.6693 29.6557 14.2669 29.6557Z" fill="#9D552E"/>
<path d="M30.1019 37.9565H30.0919C29.6895 37.9565 29.3633 37.6219 29.3633 37.2092C29.3633 36.7965 29.6895 36.4619 30.0919 36.4619H30.1019C30.5043 36.4619 30.8305 36.7965 30.8305 37.2092C30.8305 37.6219 30.5043 37.9565 30.1019 37.9565Z" fill="#C76D3D"/>
<path d="M7.14975 35.208H7.13975C6.73734 35.208 6.41113 34.8734 6.41113 34.4607C6.41113 34.048 6.73734 33.7134 7.13975 33.7134H7.14975C7.55216 33.7134 7.87837 34.048 7.87837 34.4607C7.87837 34.8734 7.55216 35.208 7.14975 35.208Z" fill="#C76D3D"/>
<path d="M21.3441 24.6636H21.3341C20.9317 24.6636 20.6055 24.329 20.6055 23.9162C20.6055 23.5035 20.9317 23.1689 21.3341 23.1689H21.3441C21.7465 23.1689 22.0727 23.5035 22.0727 23.9162C22.0727 24.329 21.7466 24.6636 21.3441 24.6636V24.6636Z" fill="#9D552E"/>
<path d="M5.15161 34.2832H5.14171C4.7393 34.2832 4.41309 33.9486 4.41309 33.5359C4.41309 33.1232 4.7393 32.7886 5.14171 32.7886H5.15161C5.55402 32.7886 5.88023 33.1232 5.88023 33.5359C5.88023 33.9486 5.55402 34.2832 5.15161 34.2832Z" fill="#C76D3D"/>
</svg>
