<svg width="19" height="20" viewBox="0 0 19 20" fill="none" xmlns="http://www.w3.org/2000/svg">
<path d="M9.53469 0.548682L9.04441 1.80634C9.00574 1.90556 8.92922 1.98536 8.83172 2.02814L7.39004 2.66087C7.29254 2.70368 7.18203 2.70599 7.08281 2.66728L6.23687 2.33739C5.95527 2.22759 5.89222 1.85876 6.11968 1.6597C6.73019 1.1254 7.4314 0.674073 8.21359 0.330753C8.48695 0.210753 8.76324 0.107081 9.04148 0.0191901C9.36215 -0.0820599 9.65684 0.235362 9.53469 0.548682Z" fill="#D67F4F"/>
<path d="M9.53449 0.548636L9.04434 1.8066C9.00531 1.90559 8.92883 1.98567 8.83145 2.02832L7.38961 2.66094C7.29223 2.70399 7.18195 2.70602 7.08258 2.66739L6.51758 2.44688L7.47129 2.02836C7.56867 1.98571 7.64555 1.90563 7.68418 1.80664L8.17434 0.548675C8.2025 0.477035 8.20856 0.405004 8.19727 0.338207C8.2025 0.335785 8.20813 0.333402 8.21336 0.33098C8.4866 0.211058 8.76305 0.10723 9.04113 0.0194959C9.36184 -0.0819494 9.65641 0.23559 9.53449 0.548636Z" fill="#C76D3D"/>
<path d="M16.2889 11.8556C16.2889 16.3534 12.6427 20.0001 8.14449 20.0001C3.63527 20.0001 0.00265769 16.3698 1.4416e-06 11.8606C-0.00195168 8.54169 1.9809 5.68599 4.82688 4.4152C4.97813 4.34766 5.15559 4.38188 5.2727 4.49899L6.17 5.39626C6.24527 5.47153 6.34742 5.51384 6.45391 5.51384H8.02836C8.13484 5.51384 8.23695 5.55614 8.31227 5.63142L9.65129 6.97044C9.72656 7.04575 9.82871 7.08802 9.9352 7.08802L11.4613 7.08626C11.6029 7.0861 11.734 7.16048 11.8066 7.28204L12.2 7.94145C12.2675 8.05466 12.3864 8.12751 12.5179 8.13634L15.2527 8.3195C15.4011 8.32942 15.5324 8.42024 15.5927 8.5561C16.0402 9.56446 16.2889 10.6809 16.2889 11.8556Z" fill="#D67F4F"/>
<path d="M16.2888 11.8555C16.2888 16.3533 12.6429 20 8.14477 20C7.91539 20 7.68844 19.9908 7.46387 19.9718C11.6441 19.627 14.9291 16.1248 14.9291 11.8556C14.9291 10.6809 14.68 9.56423 14.2325 8.55618C14.1725 8.42017 14.0409 8.32923 13.8929 8.31954L11.158 8.13646C11.0264 8.12759 10.9073 8.05478 10.8402 7.9413L10.4466 7.28216C10.3802 7.17067 10.2643 7.09907 10.1363 7.08778L11.4615 7.08618C11.6027 7.08618 11.7339 7.16063 11.8068 7.28216L12.1999 7.9413C12.2675 8.05478 12.3866 8.12763 12.5178 8.13646L15.2526 8.31954C15.4011 8.32919 15.5323 8.42013 15.5927 8.55618C16.0401 9.56419 16.2888 10.6809 16.2888 11.8555Z" fill="#C76D3D"/>
<path d="M15.6669 2.44451L14.538 3.57342C14.4627 3.64869 14.3606 3.691 14.2541 3.691H12.668C12.5615 3.691 12.4594 3.64869 12.3841 3.57342L11.2113 2.40065C11.0546 2.24389 11.0545 1.98971 11.2113 1.83291L12.3999 0.643967C12.4984 0.545529 12.6409 0.504553 12.7764 0.536857C13.8159 0.784787 14.7777 1.23237 15.6199 1.83643C15.8201 1.98002 15.8411 2.27033 15.6669 2.44451Z" fill="#D67F4F"/>
<path d="M15.6671 2.44431L14.5383 3.57349C14.4626 3.64873 14.3608 3.69099 14.2542 3.69099H12.894C13.0007 3.69099 13.1029 3.64873 13.1781 3.57349L14.3069 2.44431C14.4812 2.27006 14.4602 1.97994 14.2598 1.83627C13.6502 1.39884 12.9773 1.04349 12.2578 0.786383L12.4003 0.643922C12.4985 0.545329 12.6413 0.504274 12.7765 0.536891C13.816 0.784782 14.7777 1.23228 15.62 1.83631C15.8204 1.97994 15.8413 2.27006 15.6671 2.44431Z" fill="#C76D3D"/>
<path d="M17.3757 7.30074L15.7338 5.75609C15.6378 5.66574 15.5922 5.53402 15.6119 5.40367L15.7141 4.72789C15.7416 4.54609 15.8891 4.40621 16.072 4.38832L17.6017 4.23887C17.8131 4.2182 18.0044 4.36574 18.0376 4.57555C18.168 5.39934 18.1724 6.2416 18.0475 7.07094C17.9995 7.38988 17.6106 7.52176 17.3757 7.30074Z" fill="#D67F4F"/>
<path d="M18.0476 7.07086C17.9993 7.39001 17.6106 7.52157 17.3756 7.30063L16.9523 6.90266C17.0525 6.12801 17.0404 5.34372 16.9189 4.57551C16.9024 4.47047 16.846 4.38114 16.7676 4.3204L17.6018 4.23872C17.813 4.21821 18.0046 4.36587 18.0376 4.57551C18.1679 5.39922 18.1723 6.24149 18.0476 7.07086Z" fill="#C76D3D"/>
<path d="M10.7956 5.13306L10.6388 5.18255C10.4274 5.24931 10.2019 5.13197 10.1351 4.92052L9.91131 4.21146C9.84455 4.00002 9.96189 3.77451 10.1733 3.70775L10.3301 3.65826C10.5416 3.5915 10.7671 3.70884 10.8338 3.92029L11.0577 4.62935C11.1244 4.8408 11.0071 5.0663 10.7956 5.13306Z" fill="#9D552E"/>
<path d="M4.53627 11.1512L3.64064 11.0605C3.47634 11.0438 3.33892 10.9285 3.29396 10.7696L2.97427 9.63938C2.9149 9.4295 3.03357 9.21056 3.24177 9.14567L4.28931 8.81927C4.44423 8.77099 4.61295 8.82048 4.71728 8.94478L5.37662 9.7304C5.4901 9.8656 5.5022 10.059 5.4065 10.2073L4.91494 10.969C4.83295 11.0961 4.68666 11.1664 4.53627 11.1512Z" fill="#9D552E"/>
<path d="M5.40668 10.2074L4.91492 10.9692C4.83324 11.0963 4.68676 11.1663 4.53625 11.1514L3.70688 11.0673C3.74148 11.0404 3.77207 11.0074 3.7966 10.9691L4.28797 10.2073C4.38375 10.0588 4.37168 9.86568 4.2582 9.73048L3.6582 9.01619L4.28957 8.81939C4.44449 8.77111 4.61312 8.8206 4.71734 8.94494L5.37691 9.73045C5.49039 9.86572 5.50246 10.0589 5.40668 10.2074Z" fill="#8E4D29"/>
<path d="M6.89117 14.7052L6.80047 15.6008C6.78383 15.7651 6.66852 15.9025 6.50961 15.9475L5.37938 16.2671C5.16949 16.3265 4.95055 16.2078 4.88566 15.9996L4.55926 14.9521C4.51098 14.7972 4.56047 14.6285 4.68477 14.5241L5.47039 13.8648C5.60559 13.7513 5.79898 13.7392 5.94727 13.8349L6.70902 14.3265C6.83606 14.4085 6.90641 14.5547 6.89117 14.7052Z" fill="#9D552E"/>
<path d="M6.89113 14.705L6.8002 15.6008C6.78371 15.765 6.6682 15.9022 6.50965 15.9473L5.37926 16.2668C5.19816 16.3184 5.01023 16.2371 4.9209 16.0801L5.39094 15.9473C5.54988 15.9023 5.665 15.765 5.68148 15.6009L5.77242 14.7051C5.7877 14.5546 5.7173 14.4085 5.59012 14.3264L5.21145 14.0821L5.4702 13.8648C5.60539 13.7514 5.79856 13.7393 5.94707 13.8346L6.70883 14.3264C6.83598 14.4084 6.90641 14.5545 6.89113 14.705Z" fill="#8E4D29"/>
<path d="M12.2858 11.4689L12.18 12.5135C12.1606 12.7051 12.0261 12.8654 11.8408 12.9178L10.5226 13.2906C10.2779 13.3598 10.0225 13.2214 9.94686 12.9786L9.56619 11.7569C9.5099 11.5762 9.5676 11.3794 9.71256 11.2578L10.6288 10.4889C10.7865 10.3565 11.012 10.3424 11.1849 10.454L12.0733 11.0273C12.2215 11.1229 12.3036 11.2935 12.2858 11.4689Z" fill="#9D552E"/>
<path d="M12.2863 11.4689L12.1805 12.5136C12.1612 12.7051 12.0268 12.8653 11.8413 12.918L10.5234 13.2906C10.3302 13.3453 10.1302 13.2705 10.0176 13.1172L10.723 12.918C10.9081 12.8652 11.0425 12.7051 11.0622 12.5136L11.1677 11.4689C11.1858 11.2935 11.1037 11.1228 10.9552 11.0275L10.4087 10.6745L10.6296 10.489C10.787 10.3566 11.0127 10.3425 11.1858 10.454L12.0739 11.0275C12.2219 11.1228 12.304 11.2934 12.2863 11.4689Z" fill="#8E4D29"/>
<path d="M13.5735 16.7047L14.1427 17.4021C14.2471 17.5301 14.2627 17.7088 14.1822 17.8529L13.609 18.8781C13.5026 19.0685 13.2638 19.1395 13.0707 19.0381L12.0992 18.5282C11.9555 18.4528 11.8712 18.2984 11.8853 18.1368L11.9746 17.1151C11.99 16.9392 12.1181 16.794 12.2907 16.7567L13.177 16.5657C13.3247 16.5338 13.4779 16.5875 13.5735 16.7047Z" fill="#9D552E"/>
<path d="M14.1813 17.8527L13.6083 18.8781C13.502 19.0684 13.263 19.1393 13.0698 19.0379L12.5523 18.7662L13.063 17.8527C13.1435 17.7087 13.1278 17.53 13.0232 17.402L12.4658 16.7188L13.1761 16.5658C13.3242 16.5336 13.4771 16.5875 13.5729 16.7046L14.1419 17.402C14.2465 17.53 14.2622 17.7087 14.1813 17.8527Z" fill="#8E4D29"/>
<path d="M11.0941 15.442H10.6651C10.4984 15.442 10.3633 15.3069 10.3633 15.1402C10.3633 14.9735 10.4984 14.8384 10.6651 14.8384H11.0941C11.2607 14.8384 11.3959 14.9735 11.3959 15.1402C11.3959 15.3069 11.2607 15.442 11.0941 15.442Z" fill="#C76D3D"/>
<path d="M7.87504 17.3979C7.70836 17.3979 7.57324 17.2628 7.57324 17.0961V16.6672C7.57324 16.5004 7.70836 16.3654 7.87504 16.3654C8.04172 16.3654 8.17684 16.5005 8.17684 16.6672V17.0961C8.17684 17.2629 8.04172 17.3979 7.87504 17.3979Z" fill="#8E4D29"/>
<path d="M6.4798 8.52193H6.05082C5.88414 8.52193 5.74902 8.38681 5.74902 8.22013C5.74902 8.05341 5.88414 7.91833 6.05082 7.91833H6.4798C6.64648 7.91833 6.7816 8.05345 6.7816 8.22013C6.7816 8.38681 6.64648 8.52193 6.4798 8.52193Z" fill="#C76D3D"/>
<path d="M4.38872 7.14028C4.31149 7.14028 4.23427 7.11079 4.17532 7.05188C4.05747 6.93403 4.05743 6.74293 4.17528 6.62504L4.4786 6.32168C4.59649 6.20379 4.78755 6.20383 4.90544 6.32165C5.02329 6.4395 5.02333 6.63059 4.90544 6.74848L4.60212 7.05184C4.54317 7.11079 4.46595 7.14028 4.38872 7.14028Z" fill="#9D552E"/>
<path d="M13.8577 12.1456H13.8536C13.6869 12.1456 13.5518 12.0105 13.5518 11.8438C13.5518 11.6771 13.6869 11.542 13.8536 11.542H13.8577C14.0244 11.542 14.1595 11.6771 14.1595 11.8438C14.1595 12.0105 14.0244 12.1456 13.8577 12.1456Z" fill="#C76D3D"/>
<path d="M5.90945 11.9766H5.90531C5.73863 11.9766 5.60352 11.8415 5.60352 11.6748C5.60352 11.5082 5.73863 11.373 5.90531 11.373H5.90945C6.07613 11.373 6.21125 11.5082 6.21125 11.6748C6.21125 11.8415 6.07613 11.9766 5.90945 11.9766Z" fill="#9D552E"/>
<path d="M12.468 15.3283H12.4639C12.2972 15.3283 12.1621 15.1932 12.1621 15.0265C12.1621 14.8598 12.2972 14.7247 12.4639 14.7247H12.468C12.6347 14.7247 12.7698 14.8598 12.7698 15.0265C12.7698 15.1932 12.6347 15.3283 12.468 15.3283Z" fill="#C76D3D"/>
<path d="M2.96121 14.2187H2.95707C2.79039 14.2187 2.65527 14.0836 2.65527 13.9169C2.65527 13.7502 2.79039 13.6151 2.95707 13.6151H2.96121C3.12789 13.6151 3.26301 13.7502 3.26301 13.9169C3.26301 14.0836 3.12789 14.2187 2.96121 14.2187Z" fill="#C76D3D"/>
<path d="M8.84109 9.96016H8.83695C8.67027 9.96016 8.53516 9.82504 8.53516 9.65836C8.53516 9.49168 8.67027 9.35657 8.83695 9.35657H8.84109C9.00777 9.35657 9.14289 9.49168 9.14289 9.65836C9.14289 9.82504 9.00781 9.96016 8.84109 9.96016Z" fill="#9D552E"/>
<path d="M2.13402 13.8449H2.12992C1.96324 13.8449 1.82812 13.7098 1.82812 13.5431C1.82812 13.3765 1.96324 13.2413 2.12992 13.2413H2.13402C2.3007 13.2413 2.43582 13.3765 2.43582 13.5431C2.43582 13.7098 2.3007 13.8449 2.13402 13.8449Z" fill="#C76D3D"/>
</svg>
