<svg width="160" height="160" viewBox="0 0 160 160" fill="none" xmlns="http://www.w3.org/2000/svg">
<circle cx="80" cy="80" r="80" fill="#543C52"/>
<g clip-path="url(#clip0)">
<path d="M114.635 98.5137C114.141 98.3091 113.573 98.4222 113.195 98.7999L98.7592 113.236C98.3814 113.614 98.2684 114.182 98.473 114.676C98.6773 115.17 99.1593 115.491 99.6935 115.491H114.13C114.859 115.491 115.451 114.9 115.451 114.17V99.734C115.451 99.1998 115.129 98.7182 114.635 98.5137ZM102.882 112.849L112.808 102.923V112.849H102.882Z" fill="#F1E8E6"/>
<path d="M124.185 77.34C123.691 77.1354 123.123 77.2484 122.745 77.6262L118.789 81.5825V54.6824C118.789 53.9528 118.197 53.3614 117.468 53.3614H107.318L111.002 49.6771C111.003 49.6765 111.003 49.6758 111.004 49.6753L114.554 46.1252C115.315 45.3646 115.734 44.3528 115.734 43.277C115.734 42.2012 115.315 41.1898 114.554 40.4288L110.449 36.3236C109.688 35.563 108.676 35.1441 107.601 35.1441C106.525 35.1441 105.513 35.563 104.752 36.3236L101.201 39.8755L96.9087 44.1674L87.7148 53.3613H46.7106V40.2928C46.7106 39.5631 46.1191 38.9718 45.3896 38.9718C39.6608 38.9721 35 43.6326 35 49.3617V105.469C35 105.566 35.0113 105.661 35.0313 105.753C35.2138 108.184 36.2655 110.442 38.0231 112.157C39.9018 113.989 42.3819 114.998 45.0067 114.998H85.3729L77.7705 122.601C77.3927 122.979 77.2797 123.546 77.4841 124.04C77.6886 124.534 78.1704 124.856 78.7046 124.856H123.679C124.409 124.856 125 124.264 125 123.535V78.5604C125 78.0262 124.678 77.5444 124.185 77.34ZM106.621 38.192C107.161 37.6517 108.041 37.6517 108.581 38.192L112.686 42.2974C113.227 42.8376 113.227 43.717 112.686 44.2574L110.069 46.8751L104.003 40.8098L106.621 38.192ZM102.135 42.678L108.2 48.7431L105.776 51.167L99.7114 45.1018L102.135 42.678ZM122.359 93.4038H119.921C119.192 93.4038 118.6 93.9951 118.6 94.7248C118.6 95.4545 119.192 96.0458 119.921 96.0458H122.359V100.027H119.921C119.192 100.027 118.6 100.618 118.6 101.348C118.6 102.077 119.192 102.669 119.921 102.669H122.359V106.649H119.921C119.192 106.649 118.6 107.24 118.6 107.97C118.6 108.7 119.192 109.291 119.921 109.291H122.359V113.272H119.921C119.192 113.272 118.6 113.863 118.6 114.593C118.6 115.323 119.192 115.914 119.921 115.914H122.359V122.214H81.8936L95.2368 108.871C95.7528 108.355 95.7528 107.519 95.2368 107.003C95.1776 106.944 95.114 106.892 95.0473 106.847C94.533 106.494 93.8253 106.546 93.3685 107.003L88.0149 112.357H45.0069C41.0005 112.357 37.7752 109.229 37.6483 105.229C37.6559 104.978 37.6754 104.73 37.7067 104.483C37.7069 104.482 37.707 104.481 37.7072 104.479C37.722 104.362 37.7397 104.246 37.7599 104.13C37.7622 104.117 37.7647 104.104 37.767 104.091C37.7854 103.988 37.8062 103.885 37.8289 103.783C37.8352 103.754 37.8419 103.726 37.8485 103.697C37.8686 103.611 37.8902 103.525 37.9134 103.439C37.9261 103.393 37.9392 103.347 37.9528 103.301C37.9721 103.234 37.9922 103.167 38.0134 103.1C38.0347 103.034 38.0574 102.969 38.0804 102.903C38.0964 102.857 38.1122 102.811 38.1294 102.766C38.1616 102.679 38.1957 102.594 38.2309 102.509C38.2409 102.484 38.2507 102.46 38.2611 102.435C38.3063 102.33 38.3532 102.225 38.4028 102.122C38.4049 102.118 38.4068 102.114 38.4089 102.109C39.4422 99.971 41.4294 98.3768 43.8142 97.8822C43.8209 97.8808 43.8276 97.8792 43.8343 97.8778C43.9436 97.8555 44.054 97.8363 44.1651 97.8185C44.1835 97.8156 44.202 97.8119 44.2208 97.809C44.3212 97.7938 44.4226 97.7818 44.524 97.7704C44.5525 97.7672 44.5808 97.7628 44.6095 97.76C44.7074 97.7502 44.8062 97.7437 44.9049 97.7375C44.9362 97.7356 44.9675 97.7322 44.9988 97.7306C45.1282 97.7241 45.2586 97.7208 45.3896 97.7208C46.1191 97.7208 46.7106 97.1295 46.7106 96.3998V86.8216C46.7106 86.092 46.1191 85.5006 45.3896 85.5006C44.6601 85.5006 44.0686 86.092 44.0686 86.8216V95.1619C41.8379 95.4441 39.7674 96.439 38.1347 98.0333C37.963 98.201 37.8002 98.3754 37.6416 98.5526V49.3617C37.6416 45.54 40.4236 42.3554 44.0684 41.7265V54.6824V81.5378V81.538C44.0684 82.2675 44.6599 82.859 45.3894 82.859C46.1189 82.859 46.7104 82.2675 46.7104 81.538V81.5378V56.0034H85.073L77.7703 63.3061C77.2544 63.8222 77.2544 64.6584 77.7703 65.1743C78.2862 65.6901 79.1226 65.6901 79.6383 65.1743L89.1961 55.6165C89.1965 55.6162 89.1966 55.6158 89.197 55.6157L97.8428 46.9698L103.908 53.0352L103.196 53.7468C103.196 53.7473 103.195 53.7478 103.194 53.7483L76.5586 80.3845L70.4935 74.3194L75.7437 69.0691C76.2596 68.553 76.2596 67.7168 75.7437 67.2009C75.2278 66.6852 74.3914 66.6852 73.8757 67.2009L67.6912 73.3852C67.6581 73.4183 67.6272 73.4533 67.5982 73.4891C67.5885 73.5011 67.5799 73.5139 67.5708 73.5264C67.5521 73.5512 67.5338 73.5761 67.5168 73.6022C67.5071 73.6173 67.4983 73.6327 67.4892 73.6484C67.4746 73.673 67.4605 73.698 67.4477 73.7234C67.4393 73.74 67.4317 73.7567 67.424 73.7739C67.4122 73.7997 67.4013 73.8261 67.3913 73.8525C67.3878 73.8618 67.3832 73.8706 67.3799 73.8799L64.8062 81.1704L63.0516 86.1414C63.0284 86.2075 63.0117 86.2746 62.9992 86.3423H58.6061C57.8766 86.3423 57.2851 86.9336 57.2851 87.6633C57.2851 88.393 57.8766 88.9843 58.6061 88.9843H95.1887C95.9183 88.9843 96.5097 88.393 96.5097 87.6633C96.5097 86.9336 95.9183 86.3423 95.1887 86.3423H68.9422L76.9983 83.4985C77.0049 83.496 77.0113 83.4927 77.018 83.4902C77.0492 83.4786 77.08 83.4656 77.1104 83.4517C77.1225 83.4461 77.1347 83.4408 77.1465 83.435C77.1781 83.4192 77.2092 83.4018 77.2398 83.3832C77.2496 83.3772 77.2598 83.3717 77.2695 83.3656C77.3013 83.3452 77.3323 83.3229 77.3627 83.2993C77.3702 83.2935 77.3781 83.2884 77.3855 83.2825C77.4223 83.2529 77.4583 83.2211 77.4924 83.187L104.676 56.0036H116.147V84.2246L97.2508 103.121C96.7349 103.637 96.7349 104.473 97.2508 104.989C97.2829 105.021 97.3165 105.051 97.3511 105.08C97.5934 105.277 97.8892 105.376 98.1849 105.376C98.4805 105.376 98.7766 105.277 99.0186 105.08C99.0532 105.051 99.0868 105.021 99.119 104.989C99.1195 104.988 99.119 104.989 99.1195 104.988L122.359 81.7491V93.4038ZM74.1425 81.7045L70.3586 83.0402L67.8376 80.5192L69.1734 76.7353L74.1425 81.7045Z" fill="#F1E8E6"/>
</g>
<defs>
<clipPath id="clip0">
<rect x="35" y="35" width="90" height="90" fill="white"/>
</clipPath>
</defs>
</svg>
