<svg width="90" height="90" viewBox="0 0 90 90" fill="none" xmlns="http://www.w3.org/2000/svg">
<g clip-path="url(#clip0)">
<path d="M79.6351 63.5137C79.1415 63.3091 78.5733 63.4222 78.1954 63.7999L63.7592 78.2362C63.3814 78.6141 63.2684 79.1822 63.473 79.6758C63.6773 80.1696 64.1593 80.4913 64.6935 80.4913H79.1297C79.8594 80.4913 80.4507 79.8999 80.4507 79.1703V64.734C80.4505 64.1998 80.1287 63.7182 79.6351 63.5137ZM67.8821 77.8494L77.8083 67.9232V77.8494H67.8821Z" fill="#F1E8E6"/>
<path d="M89.1847 42.34C88.6911 42.1354 88.123 42.2484 87.7451 42.6262L83.7888 46.5825V19.6824C83.7888 18.9528 83.1973 18.3614 82.4678 18.3614H72.318L76.0023 14.6771C76.0029 14.6765 76.0034 14.6758 76.0039 14.6753L79.554 11.1252C80.3146 10.3646 80.7335 9.35281 80.7335 8.27702C80.7335 7.20124 80.3146 6.18979 79.554 5.42883L75.4488 1.32363C74.6882 0.563022 73.6764 0.144135 72.6006 0.144135C71.5248 0.144135 70.5132 0.563022 69.7524 1.32363L66.2006 4.87547L61.9087 9.16736L52.7148 18.3613H11.7106V5.29278C11.7106 4.56311 11.1191 3.97178 10.3896 3.97178C4.66085 3.97213 0 8.63263 0 14.3617V70.4687C0 70.5663 0.01125 70.6612 0.0312891 70.7526C0.21375 73.1835 1.26545 75.4421 3.02309 77.1567C4.90185 78.989 7.38195 79.9982 10.0067 79.9982H50.3729L42.7705 87.6006C42.3927 87.9785 42.2797 88.5465 42.4841 89.0402C42.6886 89.5338 43.1704 89.8557 43.7046 89.8557H88.6792C89.4087 89.8557 90.0002 89.2644 90.0002 88.5347V43.5604C90.0002 43.0262 89.6781 42.5444 89.1847 42.34ZM71.621 3.19201C72.161 2.65166 73.0408 2.65166 73.5808 3.19201L77.6861 7.29739C78.2265 7.83757 78.2265 8.717 77.6861 9.25736L75.0686 11.8751L69.0031 5.80975L71.621 3.19201ZM67.1349 7.67796L73.2002 13.7431L70.7764 16.167L64.7114 10.1018L67.1349 7.67796ZM87.3585 58.4038H84.9213C84.1917 58.4038 83.6003 58.9951 83.6003 59.7248C83.6003 60.4545 84.1917 61.0458 84.9213 61.0458H87.3585V65.0265H84.9213C84.1917 65.0265 83.6003 65.6179 83.6003 66.3475C83.6003 67.0772 84.1917 67.6685 84.9213 67.6685H87.3585V71.6491H84.9213C84.1917 71.6491 83.6003 72.2404 83.6003 72.9701C83.6003 73.6998 84.1917 74.2911 84.9213 74.2911H87.3585V78.2719H84.9213C84.1917 78.2719 83.6003 78.8634 83.6003 79.5928C83.6003 80.3225 84.1917 80.9138 84.9213 80.9138H87.3585V87.2142H46.8936L60.2368 73.8712C60.7528 73.3551 60.7528 72.5189 60.2368 72.003C60.1776 71.9437 60.114 71.8924 60.0473 71.8467C59.533 71.4944 58.8253 71.5463 58.3685 72.003L53.0149 77.3566H10.0069C6.00048 77.3566 2.77524 74.2287 2.64833 70.2295C2.65588 69.9785 2.6754 69.7296 2.70669 69.4835C2.70686 69.4821 2.70704 69.4807 2.70721 69.4793C2.72198 69.3624 2.73973 69.246 2.75995 69.1303C2.76223 69.1171 2.76469 69.104 2.76698 69.0908C2.78544 68.9876 2.80618 68.8849 2.82885 68.7826C2.83518 68.7542 2.84186 68.7257 2.84854 68.6974C2.86858 68.6109 2.8902 68.5249 2.9134 68.4393C2.92606 68.3929 2.93924 68.347 2.95278 68.3008C2.97212 68.2337 2.99215 68.1667 3.01342 68.1004C3.03469 68.0342 3.05737 67.9686 3.0804 67.903C3.09639 67.8571 3.11221 67.8113 3.12944 67.7657C3.16161 67.6792 3.19571 67.5937 3.23087 67.5087C3.24089 67.4843 3.25073 67.4595 3.2611 67.4351C3.30628 67.3296 3.35321 67.2254 3.40278 67.1224C3.40489 67.118 3.40682 67.1136 3.40893 67.1092C4.44218 64.971 6.42939 63.3768 8.81422 62.8822C8.8209 62.8808 8.82758 62.8792 8.83426 62.8778C8.94359 62.8555 9.05398 62.8363 9.16508 62.8185C9.18353 62.8156 9.20199 62.8119 9.2208 62.809C9.32117 62.7938 9.4226 62.7818 9.52402 62.7704C9.5525 62.7672 9.5808 62.7628 9.60945 62.76C9.70736 62.7502 9.80615 62.7437 9.90494 62.7375C9.93623 62.7356 9.96752 62.7322 9.99881 62.7306C10.1282 62.7241 10.2586 62.7208 10.3896 62.7208C11.1191 62.7208 11.7106 62.1295 11.7106 61.3998V51.8216C11.7106 51.092 11.1191 50.5006 10.3896 50.5006C9.66008 50.5006 9.06857 51.092 9.06857 51.8216V60.1619C6.8379 60.4441 4.76737 61.439 3.13471 63.0333C2.96297 63.201 2.8002 63.3754 2.64165 63.5526V14.3617C2.64165 10.54 5.42357 7.3554 9.0684 6.72645V19.6824V46.5378V46.538C9.0684 47.2675 9.6599 47.859 10.3894 47.859C11.1189 47.859 11.7104 47.2675 11.7104 46.538V46.5378V21.0034H50.073L42.7703 28.3061C42.2544 28.8222 42.2544 29.6584 42.7703 30.1743C43.2862 30.6901 44.1226 30.6901 44.6383 30.1743L54.1961 20.6165C54.1965 20.6162 54.1966 20.6158 54.197 20.6157L62.8428 11.9698L68.9078 18.0352L68.1962 18.7468C68.1957 18.7473 68.195 18.7478 68.1945 18.7483L41.5586 45.3845L35.4935 39.3194L40.7437 34.0691C41.2596 33.553 41.2596 32.7168 40.7437 32.2009C40.2278 31.6852 39.3914 31.6852 38.8757 32.2009L32.6912 38.3852C32.6581 38.4183 32.6272 38.4533 32.5982 38.4891C32.5885 38.5011 32.5799 38.5139 32.5708 38.5264C32.5521 38.5512 32.5338 38.5761 32.5168 38.6022C32.5071 38.6173 32.4983 38.6327 32.4892 38.6484C32.4746 38.673 32.4605 38.698 32.4477 38.7234C32.4393 38.74 32.4317 38.7567 32.424 38.7739C32.4122 38.7997 32.4013 38.8261 32.3913 38.8525C32.3878 38.8618 32.3832 38.8706 32.3799 38.8799L29.8062 46.1704L28.0516 51.1414C28.0284 51.2075 28.0117 51.2746 27.9992 51.3423H23.6061C22.8766 51.3423 22.2851 51.9336 22.2851 52.6633C22.2851 53.393 22.8766 53.9843 23.6061 53.9843H60.1887C60.9183 53.9843 61.5097 53.393 61.5097 52.6633C61.5097 51.9336 60.9183 51.3423 60.1887 51.3423H33.9422L41.9983 48.4985C42.0049 48.496 42.0113 48.4927 42.018 48.4902C42.0492 48.4786 42.08 48.4656 42.1104 48.4517C42.1225 48.4461 42.1347 48.4408 42.1465 48.435C42.1781 48.4192 42.2092 48.4018 42.2398 48.3832C42.2496 48.3772 42.2598 48.3717 42.2695 48.3656C42.3013 48.3452 42.3323 48.3229 42.3627 48.2993C42.3702 48.2935 42.3781 48.2884 42.3855 48.2825C42.4223 48.2529 42.4583 48.2211 42.4924 48.187L69.676 21.0036H81.1466V49.2246L62.2508 68.1206C61.7349 68.6367 61.7349 69.4729 62.2508 69.9888C62.2829 70.021 62.3165 70.0512 62.3511 70.0796C62.5934 70.277 62.8892 70.3757 63.1849 70.3757C63.4805 70.3757 63.7766 70.277 64.0186 70.0796C64.0532 70.0514 64.0868 70.021 64.119 69.9888C64.1195 69.9883 64.119 69.9888 64.1195 69.9883L87.3585 46.7491V58.4038ZM39.1425 46.7045L35.3586 48.0402L32.8376 45.5192L34.1734 41.7353L39.1425 46.7045Z" fill="#F1E8E6"/>
</g>
<defs>
<clipPath id="clip0">
<rect width="90" height="90" fill="white"/>
</clipPath>
</defs>
</svg>
