<svg width="90px" height="90px" viewBox="0 0 90 90" fill="none" xmlns="http://www.w3.org/2000/svg">
<path d="M59.6461 39.4141L45.7628 30.1588L49.9946 21.6939C50.5734 20.5369 50.2274 19.132 49.1782 18.3753C48.1297 17.6193 46.6863 17.736 45.7724 18.65L29.9521 34.4703C29.3932 35.0292 29.1144 35.8086 29.1927 36.5948C29.2703 37.381 29.6967 38.091 30.3538 38.529L44.2371 47.7843L40.0046 56.2493C39.4264 57.4063 39.7725 58.8119 40.8217 59.5679C41.8791 60.33 43.3211 60.1996 44.2275 59.2932L60.0478 43.4729C60.6067 42.914 60.8855 42.1346 60.8072 41.3484C60.7296 40.5622 60.3032 39.8529 59.6461 39.4141ZM50.1058 45.9572C49.9177 45.4539 49.575 45.0055 49.0992 44.6876L35.9554 35.9253L39.894 31.986C40.0822 32.4893 40.4248 32.9377 40.9007 33.2549L54.0444 42.0179L50.1058 45.9572Z" fill="#F1E8E6"/>
<path d="M87.3633 33.6985H81.9141C80.4577 33.6985 79.2773 34.8788 79.2773 36.3352C79.2773 37.7909 80.4577 38.9719 81.9141 38.9719H87.3633C88.8197 38.9719 90 37.7909 90 36.3352C90 34.8788 88.8197 33.6985 87.3633 33.6985Z" fill="#F1E8E6"/>
<path d="M0 36.3352C0 37.7909 1.18034 38.9719 2.63672 38.9719H8.08594C9.54231 38.9719 10.7227 37.7909 10.7227 36.3352C10.7227 34.8788 9.54231 33.6985 8.08594 33.6985H2.63672C1.18034 33.6985 0 34.8788 0 36.3352Z" fill="#F1E8E6"/>
<path d="M76.6955 4.63966C75.6662 3.6097 73.9969 3.6097 72.967 4.63966L69.2378 8.36815C68.2078 9.39812 68.2078 11.0674 69.2378 12.0973C70.2671 13.1266 71.9363 13.1266 72.9663 12.0973L76.6955 8.36815C77.7254 7.33887 77.7254 5.66895 76.6955 4.63966Z" fill="#F1E8E6"/>
<path d="M13.3045 68.0301C14.3344 69.0601 16.0037 69.0601 17.0336 68.0301L20.7621 64.3016C21.7921 63.2716 21.7921 61.6024 20.7621 60.5724C19.7328 59.5432 18.0629 59.5432 17.0336 60.5724L13.3045 64.3016C12.2745 65.3316 12.2745 67.0008 13.3045 68.0301Z" fill="#F1E8E6"/>
<path d="M17.0336 4.63966C16.0043 3.6097 14.3344 3.6097 13.3045 4.63966C12.2745 5.66895 12.2745 7.33887 13.3045 8.36815L17.0336 12.0973C18.0629 13.1266 19.7321 13.1266 20.7621 12.0973C21.7921 11.0674 21.7921 9.39812 20.7621 8.36815L17.0336 4.63966Z" fill="#F1E8E6"/>
<path d="M72.9663 60.5724C71.937 59.5432 70.2671 59.5432 69.2378 60.5724C68.2078 61.6024 68.2078 63.2716 69.2378 64.3016L72.967 68.0301C73.9963 69.0601 75.6655 69.0601 76.6955 68.0301C77.7254 67.0008 77.7254 65.3316 76.6955 64.3016L72.9663 60.5724Z" fill="#F1E8E6"/>
<path d="M38.7756 7.98157C27.3931 10.3587 18.4159 19.6964 16.4363 31.2177C14.5006 42.4834 19.0634 53.5309 28.3434 60.0485C30.518 61.5756 31.8165 64.2844 31.8165 67.2933V67.9758C31.8165 71.4132 34.0206 74.3438 37.0899 75.4321V78.5227C37.0899 82.8843 40.6385 86.4329 45.0001 86.4329C49.3616 86.4329 52.9102 82.8843 52.9102 78.5227V75.4321C55.9795 74.3438 58.1837 71.4132 58.1837 67.9758V67.1478C58.1837 64.2941 59.6991 61.5248 62.3427 59.5521C69.4625 54.2361 74.004 45.7869 74.004 36.3352C74.004 18.0553 57.2704 4.1185 38.7756 7.98157ZM45.0001 81.1594C43.5464 81.1594 42.3633 79.9763 42.3633 78.5227V75.886H47.6368V78.5227C47.6368 79.9763 46.4537 81.1594 45.0001 81.1594ZM59.1875 55.3265C55.1981 58.3051 52.9102 62.6138 52.9102 67.1478V67.9758C52.9102 69.4295 51.7271 70.6126 50.2735 70.6126H39.7266C38.273 70.6126 37.0899 69.4295 37.0899 67.9758V67.2933C37.0899 62.5685 34.9531 58.2468 31.3743 55.733C23.7793 50.3991 20.0467 41.3477 21.6335 32.111C23.2492 22.7046 30.5716 15.0822 39.8537 13.1431C55.0038 9.97902 68.7305 21.3368 68.7305 36.3352C68.7305 43.8766 65.2527 50.7987 59.1875 55.3265Z" fill="#F1E8E6"/>
</svg>
