<svg width="160" height="160" viewBox="0 0 160 160" fill="none" xmlns="http://www.w3.org/2000/svg">
<circle cx="80" cy="80" r="80" fill="#543C52"/>
<path d="M94.6461 77.4141L80.7628 68.1588L84.9946 59.6939C85.5734 58.5369 85.2274 57.132 84.1782 56.3753C83.1297 55.6193 81.6863 55.736 80.7724 56.65L64.9521 72.4703C64.3932 73.0292 64.1144 73.8086 64.1927 74.5948C64.2703 75.381 64.6967 76.091 65.3538 76.529L79.2371 85.7843L75.0046 94.2493C74.4264 95.4063 74.7725 96.8119 75.8217 97.5679C76.8791 98.33 78.3211 98.1996 79.2275 97.2932L95.0478 81.4729C95.6067 80.914 95.8855 80.1346 95.8072 79.3484C95.7296 78.5622 95.3032 77.8529 94.6461 77.4141ZM85.1058 83.9572C84.9177 83.4539 84.575 83.0055 84.0992 82.6876L70.9554 73.9253L74.894 69.986C75.0822 70.4893 75.4248 70.9377 75.9007 71.2549L89.0444 80.0179L85.1058 83.9572Z" fill="#F1E8E6"/>
<path d="M122.363 71.6985H116.914C115.458 71.6985 114.277 72.8788 114.277 74.3352C114.277 75.7909 115.458 76.9719 116.914 76.9719H122.363C123.82 76.9719 125 75.7909 125 74.3352C125 72.8788 123.82 71.6985 122.363 71.6985Z" fill="#F1E8E6"/>
<path d="M35 74.3352C35 75.7909 36.1803 76.9719 37.6367 76.9719H43.0859C44.5423 76.9719 45.7227 75.7909 45.7227 74.3352C45.7227 72.8788 44.5423 71.6985 43.0859 71.6985H37.6367C36.1803 71.6985 35 72.8788 35 74.3352Z" fill="#F1E8E6"/>
<path d="M111.695 42.6397C110.666 41.6097 108.997 41.6097 107.967 42.6397L104.238 46.3681C103.208 47.3981 103.208 49.0674 104.238 50.0973C105.267 51.1266 106.936 51.1266 107.966 50.0973L111.695 46.3681C112.725 45.3389 112.725 43.6689 111.695 42.6397Z" fill="#F1E8E6"/>
<path d="M48.3045 106.03C49.3344 107.06 51.0037 107.06 52.0336 106.03L55.7621 102.302C56.7921 101.272 56.7921 99.6024 55.7621 98.5724C54.7328 97.5432 53.0629 97.5432 52.0336 98.5724L48.3045 102.302C47.2745 103.332 47.2745 105.001 48.3045 106.03Z" fill="#F1E8E6"/>
<path d="M52.0336 42.6397C51.0043 41.6097 49.3344 41.6097 48.3045 42.6397C47.2745 43.6689 47.2745 45.3389 48.3045 46.3681L52.0336 50.0973C53.0629 51.1266 54.7321 51.1266 55.7621 50.0973C56.7921 49.0674 56.7921 47.3981 55.7621 46.3681L52.0336 42.6397Z" fill="#F1E8E6"/>
<path d="M107.966 98.5724C106.937 97.5432 105.267 97.5432 104.238 98.5724C103.208 99.6024 103.208 101.272 104.238 102.302L107.967 106.03C108.996 107.06 110.665 107.06 111.695 106.03C112.725 105.001 112.725 103.332 111.695 102.302L107.966 98.5724Z" fill="#F1E8E6"/>
<path d="M73.7756 45.9816C62.3931 48.3587 53.4159 57.6964 51.4363 69.2177C49.5006 80.4834 54.0634 91.5309 63.3434 98.0485C65.518 99.5756 66.8165 102.284 66.8165 105.293V105.976C66.8165 109.413 69.0206 112.344 72.0899 113.432V116.523C72.0899 120.884 75.6385 124.433 80.0001 124.433C84.3616 124.433 87.9102 120.884 87.9102 116.523V113.432C90.9795 112.344 93.1837 109.413 93.1837 105.976V105.148C93.1837 102.294 94.6991 99.5248 97.3427 97.5521C104.462 92.2361 109.004 83.7869 109.004 74.3352C109.004 56.0553 92.2704 42.1185 73.7756 45.9816ZM80.0001 119.159C78.5464 119.159 77.3633 117.976 77.3633 116.523V113.886H82.6368V116.523C82.6368 117.976 81.4537 119.159 80.0001 119.159ZM94.1875 93.3265C90.1981 96.3051 87.9102 100.614 87.9102 105.148V105.976C87.9102 107.429 86.7271 108.613 85.2735 108.613H74.7266C73.273 108.613 72.0899 107.429 72.0899 105.976V105.293C72.0899 100.569 69.9531 96.2468 66.3743 93.733C58.7793 88.3991 55.0467 79.3477 56.6335 70.111C58.2492 60.7046 65.5716 53.0822 74.8537 51.1431C90.0038 47.979 103.731 59.3368 103.731 74.3352C103.731 81.8766 100.253 88.7987 94.1875 93.3265Z" fill="#F1E8E6"/>
</svg>
