<svg width="160" height="160" viewBox="0 0 160 160" fill="none" xmlns="http://www.w3.org/2000/svg">
<circle cx="80" cy="80" r="80" fill="#543C52"/>
<g clip-path="url(#clip0)">
<path d="M80.7044 142.204C81.395 141.513 81.395 140.393 80.7044 139.703C80.0138 139.012 78.8941 139.012 78.2035 139.703C77.513 140.393 77.513 141.513 78.2035 142.204C78.8941 142.894 80.0138 142.894 80.7044 142.204Z" fill="#F1E8E6"/>
<path d="M80.9264 78.5511C81.6156 77.8619 81.6156 76.7444 80.9264 76.0552C80.2372 75.366 79.1198 75.366 78.4306 76.0552C77.7413 76.7444 77.7413 77.8619 78.4306 78.5511C79.1198 79.2403 80.2372 79.2403 80.9264 78.5511Z" fill="#F1E8E6"/>
<path d="M80.2004 45.1415C78.1939 45.1414 76.3077 45.9228 74.889 47.3415C73.4703 48.7603 72.6889 50.6468 72.6889 52.653C72.6891 56.7949 76.0587 60.1646 80.2006 60.1646C82.2717 60.1645 84.1491 59.3222 85.5094 57.9619C86.8693 56.602 87.7119 54.7238 87.712 52.6531C87.7119 48.5112 84.3422 45.1415 80.2004 45.1415ZM84.1825 52.6529C84.1824 54.8485 82.3959 56.6351 80.2004 56.6349C78.0047 56.6351 76.2183 54.8487 76.2183 52.6528C76.2183 51.5891 76.6325 50.5893 77.3846 49.8372C78.1367 49.085 79.1366 48.6709 80.2003 48.6709C82.3961 48.6709 84.1825 50.4573 84.1825 52.6529Z" fill="#F1E8E6"/>
<path d="M82.7295 115.554C81.8052 115.864 81.3074 116.864 81.6171 117.788L83.1157 122.259C83.7671 124.203 83.3351 126.371 81.9875 127.917L80.3771 129.764C80.1044 130.075 79.7667 130.122 79.5889 130.122C79.4112 130.122 79.0727 130.075 78.8006 129.764L77.1904 127.917C75.843 126.371 75.4108 124.203 76.0621 122.259L77.5606 117.788C77.8704 116.864 77.3723 115.864 76.4482 115.554C75.5242 115.244 74.5238 115.742 74.2141 116.666L72.7156 121.138C71.6678 124.264 72.3628 127.751 74.5298 130.236L76.1401 132.083C77.0093 133.08 78.2661 133.652 79.5887 133.652C80.8063 133.652 81.9686 133.167 82.8237 132.312C82.8972 132.239 82.9686 132.162 83.0374 132.083L84.6478 130.236C86.8149 127.751 87.5101 124.264 86.462 121.138L84.9635 116.666C84.6537 115.742 83.6536 115.244 82.7295 115.554Z" fill="#F1E8E6"/>
<path d="M79.7954 18.2381C78.633 18.2468 77.5246 18.7518 76.7586 19.6245L75.6707 20.8605C65.9174 31.944 61.1962 46.7231 62.7177 61.4083L63.3497 67.5104L55.9822 74.4576C55.9696 74.4694 55.9572 74.4816 55.9451 74.4936C50.2688 80.17 47.1426 87.7171 47.1425 95.7448L47.1426 110.406C47.1426 111.104 47.5533 111.736 48.1904 112.019C48.8277 112.302 49.572 112.184 50.0895 111.717L66.4044 96.9962L66.5507 98.4079C66.6246 99.1193 67.1202 99.716 67.8062 99.9184C68.4963 100.122 69.191 100.307 69.8896 100.474L70.5783 108.523C70.6372 109.211 71.0923 109.802 71.7425 110.034C74.2448 110.929 76.8377 111.388 79.4497 111.399C82.1253 111.41 84.7816 110.951 87.345 110.035C87.5956 109.945 87.8173 109.802 87.9986 109.621C88.2796 109.34 88.4633 108.966 88.5062 108.556C88.6558 107.12 88.807 105.443 88.9534 103.821C89.0577 102.666 89.1645 101.483 89.271 100.385C89.847 100.242 90.4208 100.087 90.9914 99.9188C91.28 99.8336 91.535 99.6787 91.7392 99.4745C92.011 99.2027 92.1924 98.8443 92.2424 98.4473L92.4329 96.9367L108.817 111.719C109.335 112.186 110.079 112.305 110.716 112.021C110.917 111.932 111.096 111.808 111.247 111.657C111.572 111.332 111.764 110.886 111.764 110.409V95.7472C111.764 87.7194 108.637 80.1725 102.961 74.496L96.1252 67.6603L96.773 62.5241C98.7144 47.1314 93.8511 31.7111 83.4298 20.2169L82.8522 19.5799C82.0719 18.7185 80.9577 18.2298 79.7954 18.2381ZM50.6721 106.437V95.7449C50.6721 88.6688 53.4248 82.0152 58.4229 77.0074L63.8075 71.93L65.9541 92.649L50.6721 106.437ZM85.4382 103.504C85.3302 104.699 85.2197 105.924 85.1097 107.054C83.2617 107.603 81.3673 107.878 79.4641 107.87C77.6209 107.862 75.7861 107.59 73.9955 107.059L73.4912 101.166C75.3988 101.444 77.3257 101.588 79.2589 101.594C79.2604 101.594 79.2618 101.594 79.2633 101.594C79.2638 101.594 79.2644 101.594 79.2649 101.594C79.2656 101.594 79.2662 101.594 79.267 101.594C81.41 101.601 83.5453 101.439 85.6561 101.112C85.583 101.9 85.51 102.708 85.4382 103.504ZM100.465 76.9914C105.475 82.0011 108.234 88.6618 108.234 95.7469V106.439L92.9714 92.6686L95.5666 72.0927L100.465 76.9915L100.465 76.9914ZM80.8155 22.5873C90.5439 33.3174 95.0839 47.7126 93.2716 62.0821L88.8875 96.8415C86.3161 97.5162 83.6835 97.9092 81.0303 98.025V84.8282C81.0303 83.8538 80.24 83.0635 79.2654 83.0634C78.2906 83.0634 77.5005 83.8535 77.5005 84.8282L77.5005 98.0126C74.9467 97.8828 72.4133 97.4963 69.9378 96.8487L66.2284 61.0445C64.8081 47.3357 69.2154 33.5391 78.3205 23.1925L79.4083 21.9565C79.5511 21.7948 79.7286 21.7685 79.8218 21.7677C79.9148 21.767 80.0926 21.7899 80.2381 21.9503L80.8155 22.5873Z" fill="#F1E8E6"/>
</g>
<defs>
<clipPath id="clip0">
<rect x="16" y="80" width="90" height="90" transform="rotate(-45 16 80)" fill="white"/>
</clipPath>
</defs>
</svg>
