<svg width="128" height="128" viewBox="0 0 128 128" fill="none" xmlns="http://www.w3.org/2000/svg">
<g clip-path="url(#clip0)">
<path d="M64.7044 126.204C65.395 125.513 65.395 124.393 64.7044 123.703C64.0138 123.012 62.8941 123.012 62.2035 123.703C61.513 124.393 61.513 125.513 62.2035 126.204C62.8941 126.894 64.0138 126.894 64.7044 126.204Z" fill="#F1E8E6"/>
<path d="M64.9264 62.5511C65.6156 61.8619 65.6156 60.7444 64.9264 60.0552C64.2372 59.366 63.1198 59.366 62.4306 60.0552C61.7413 60.7444 61.7413 61.8619 62.4306 62.5511C63.1198 63.2403 64.2372 63.2403 64.9264 62.5511Z" fill="#F1E8E6"/>
<path d="M64.2004 29.1415C62.1939 29.1414 60.3077 29.9228 58.889 31.3415C57.4703 32.7603 56.6889 34.6468 56.6889 36.653C56.6891 40.7949 60.0587 44.1646 64.2006 44.1646C66.2717 44.1645 68.1491 43.3222 69.5094 41.9619C70.8693 40.602 71.7119 38.7238 71.712 36.6531C71.7119 32.5112 68.3422 29.1415 64.2004 29.1415ZM68.1825 36.6529C68.1824 38.8485 66.3959 40.6351 64.2004 40.6349C62.0047 40.6351 60.2183 38.8487 60.2183 36.6528C60.2183 35.5891 60.6325 34.5893 61.3846 33.8372C62.1367 33.085 63.1366 32.6709 64.2003 32.6709C66.3961 32.6709 68.1825 34.4573 68.1825 36.6529Z" fill="#F1E8E6"/>
<path d="M66.7295 99.5539C65.8052 99.8637 65.3074 100.864 65.6171 101.788L67.1157 106.259C67.7671 108.203 67.3351 110.371 65.9875 111.917L64.3771 113.764C64.1044 114.075 63.7667 114.122 63.5889 114.122C63.4112 114.122 63.0727 114.075 62.8006 113.764L61.1904 111.917C59.843 110.371 59.4108 108.203 60.0621 106.259L61.5606 101.788C61.8704 100.864 61.3723 99.8637 60.4482 99.554C59.5242 99.2443 58.5238 99.7422 58.2141 100.666L56.7156 105.138C55.6678 108.264 56.3628 111.751 58.5298 114.236L60.1401 116.083C61.0093 117.08 62.2661 117.652 63.5887 117.652C64.8063 117.652 65.9686 117.167 66.8237 116.312C66.8972 116.239 66.9686 116.162 67.0374 116.083L68.6478 114.236C70.8149 111.751 71.5101 108.264 70.462 105.138L68.9635 100.666C68.6537 99.7422 67.6536 99.2443 66.7295 99.5539Z" fill="#F1E8E6"/>
<path d="M63.7954 2.23809C62.633 2.24679 61.5246 2.75181 60.7586 3.62449L59.6707 4.8605C49.9174 15.944 45.1962 30.7231 46.7177 45.4083L47.3497 51.5104L39.9822 58.4576C39.9696 58.4694 39.9572 58.4816 39.9451 58.4936C34.2688 64.17 31.1426 71.7171 31.1425 79.7448L31.1426 94.4064C31.1426 95.1038 31.5533 95.7359 32.1904 96.0191C32.8277 96.3023 33.572 96.184 34.0895 95.7167L50.4044 80.9962L50.5507 82.4079C50.6246 83.1193 51.1202 83.716 51.8062 83.9184C52.4963 84.1223 53.191 84.3074 53.8896 84.4744L54.5783 92.523C54.6372 93.2111 55.0923 93.8016 55.7425 94.0344C58.2448 94.9291 60.8377 95.3884 63.4497 95.3991C66.1253 95.4103 68.7816 94.951 71.345 94.0346C71.5956 93.9451 71.8173 93.8021 71.9986 93.6209C72.2796 93.3399 72.4633 92.9662 72.5062 92.5557C72.6558 91.1198 72.807 89.443 72.9534 87.8215C73.0577 86.6656 73.1645 85.4832 73.271 84.3848C73.847 84.2416 74.4208 84.0874 74.9914 83.9188C75.28 83.8336 75.535 83.6787 75.7392 83.4745C76.011 83.2027 76.1924 82.8443 76.2424 82.4473L76.4329 80.9367L92.8167 95.719C93.3345 96.1861 94.0787 96.3046 94.7158 96.0214C94.9174 95.9317 95.0962 95.8076 95.2466 95.6572C95.5716 95.3322 95.7636 94.8859 95.7635 94.4089V79.7472C95.7635 71.7194 92.6373 64.1725 86.9608 58.496L80.1252 51.6603L80.773 46.5241C82.7144 31.1314 77.8511 15.7111 67.4298 4.21689L66.8522 3.57987C66.0719 2.7185 64.9577 2.22976 63.7954 2.23809ZM34.6721 90.4374V79.7449C34.6721 72.6688 37.4248 66.0152 42.4229 61.0074L47.8075 55.93L49.9541 76.649L34.6721 90.4374ZM69.4382 87.5041C69.3302 88.699 69.2197 89.9242 69.1097 91.0537C67.2617 91.6032 65.3673 91.8775 63.4641 91.8696C61.6209 91.862 59.7861 91.5895 57.9955 91.0588L57.4912 85.166C59.3988 85.4443 61.3257 85.5879 63.2589 85.5945C63.2604 85.5945 63.2618 85.5943 63.2633 85.5943C63.2638 85.5943 63.2644 85.5945 63.2649 85.5945C63.2656 85.5945 63.2662 85.5943 63.267 85.5943C65.41 85.6012 67.5453 85.4387 69.6561 85.1121C69.583 85.8996 69.51 86.7084 69.4382 87.5041ZM84.4655 60.9914C89.4752 66.0011 92.2342 72.6618 92.2342 79.7469V90.4394L76.9714 76.6686L79.5666 56.0927L84.4654 60.9915L84.4655 60.9914ZM64.8155 6.58735C74.5439 17.3174 79.0839 31.7126 77.2716 46.0821L72.8875 80.8415C70.3161 81.5162 67.6835 81.9092 65.0303 82.025V68.8282C65.0303 67.8538 64.24 67.0635 63.2654 67.0634C62.2906 67.0634 61.5005 67.8535 61.5005 68.8282L61.5005 82.0126C58.9467 81.8828 56.4133 81.4963 53.9378 80.8487L50.2284 45.0445C48.8081 31.3357 53.2154 17.5391 62.3205 7.19254L63.4083 5.95654C63.5511 5.79483 63.7286 5.76848 63.8218 5.76774C63.9148 5.76699 64.0926 5.78986 64.2381 5.95033L64.8155 6.58735Z" fill="#F1E8E6"/>
</g>
<defs>
<clipPath id="clip0">
<rect y="64" width="90" height="90" transform="rotate(-45 0 64)" fill="white"/>
</clipPath>
</defs>
</svg>
