<svg width="152" height="68" viewBox="0 0 152 68" fill="none" xmlns="http://www.w3.org/2000/svg">
<path d="M64.5 65L36.5 46L50.5 37L64.5 65Z" fill="#F55951" stroke="#F55951"/>
<path d="M33 2L2 66L48.5 34L33 2Z" fill="#EDD2CB" stroke="#EDD2CB"/>
<path d="M32.8333 23L25.5 39L36.5 31L32.8333 23Z" fill="#543C52" stroke="#543C52"/>
<path d="M83.96 25.56H79.26L78.12 29H76.16L80.54 15.64H82.68L87.06 29H85.12L83.96 25.56ZM83.52 24.06L81.6 17.46L79.7 24.06H83.52ZM92.2909 27.74C93.9576 27.74 94.7909 26.4133 94.7909 23.76C94.7909 21.3867 94.1176 20.2 92.7709 20.2C92.0109 20.2 91.2109 20.4933 90.3709 21.08V27.46C91.0376 27.6467 91.6776 27.74 92.2909 27.74ZM90.2309 19.7C91.1109 19.02 92.0976 18.68 93.1909 18.68C94.2843 18.68 95.1376 19.1333 95.7509 20.04C96.3643 20.9467 96.6709 22.18 96.6709 23.74C96.6709 27.42 95.2043 29.26 92.2709 29.26C91.5776 29.26 90.9443 29.1267 90.3709 28.86V33.28L88.5709 33.48V18.86H90.0909L90.2309 19.7ZM102.643 27.74C104.309 27.74 105.143 26.4133 105.143 23.76C105.143 21.3867 104.469 20.2 103.123 20.2C102.363 20.2 101.563 20.4933 100.723 21.08V27.46C101.389 27.6467 102.029 27.74 102.643 27.74ZM100.583 19.7C101.463 19.02 102.449 18.68 103.543 18.68C104.636 18.68 105.489 19.1333 106.103 20.04C106.716 20.9467 107.023 22.18 107.023 23.74C107.023 27.42 105.556 29.26 102.623 29.26C101.929 29.26 101.296 29.1267 100.723 28.86V33.28L98.9225 33.48V18.86H100.443L100.583 19.7ZM109.114 27.16C109.994 27.5467 110.801 27.74 111.534 27.74C112.267 27.74 112.801 27.6067 113.134 27.34C113.481 27.06 113.654 26.72 113.654 26.32C113.654 25.9067 113.487 25.56 113.154 25.28C112.834 25 112.441 24.78 111.974 24.62C111.507 24.4467 111.034 24.2667 110.554 24.08C110.087 23.8933 109.687 23.6 109.354 23.2C109.034 22.7867 108.874 22.2733 108.874 21.66C108.874 20.7533 109.194 20.0333 109.834 19.5C110.474 18.9533 111.341 18.68 112.434 18.68C113.527 18.68 114.407 18.8733 115.074 19.26L114.654 20.6C113.881 20.3333 113.167 20.2 112.514 20.2C111.861 20.2 111.374 20.32 111.054 20.56C110.734 20.8 110.574 21.1267 110.574 21.54C110.574 21.94 110.741 22.2733 111.074 22.54C111.407 22.8067 111.807 23.02 112.274 23.18C112.754 23.34 113.227 23.52 113.694 23.72C114.161 23.9067 114.561 24.2 114.894 24.6C115.227 25 115.394 25.5 115.394 26.1C115.394 26.98 115.067 27.7267 114.414 28.34C113.761 28.9533 112.827 29.26 111.614 29.26C111.054 29.26 110.487 29.1867 109.914 29.04C109.354 28.8933 108.934 28.72 108.654 28.52L109.114 27.16ZM124.217 27.98C123.443 28.8333 122.43 29.26 121.177 29.26C119.923 29.26 118.923 28.84 118.177 28C117.43 27.16 117.057 25.8267 117.057 24C117.057 22.16 117.443 20.8133 118.217 19.96C119.003 19.1067 120.023 18.68 121.277 18.68C122.53 18.68 123.523 19.1 124.257 19.94C125.003 20.78 125.377 22.12 125.377 23.96C125.377 25.7867 124.99 27.1267 124.217 27.98ZM121.237 20.16C119.677 20.16 118.897 21.4333 118.897 23.98C118.897 26.5133 119.67 27.78 121.217 27.78C121.857 27.78 122.403 27.48 122.857 26.88C123.31 26.28 123.537 25.28 123.537 23.88C123.537 22.48 123.337 21.5133 122.937 20.98C122.55 20.4333 121.983 20.16 121.237 20.16ZM135.273 22.14V29H133.473V22.16C133.473 21.5467 133.393 21.0667 133.233 20.72C133.073 20.3733 132.746 20.2 132.253 20.2C131.773 20.2 131.266 20.3267 130.733 20.58C130.2 20.8333 129.773 21.1533 129.453 21.54V29H127.653V18.88H129.153L129.353 20.1C129.726 19.74 130.213 19.4133 130.813 19.12C131.426 18.8267 132.02 18.68 132.593 18.68C133.806 18.68 134.6 19.1733 134.973 20.16C135.373 19.7867 135.893 19.4467 136.533 19.14C137.173 18.8333 137.773 18.68 138.333 18.68C140.12 18.68 141.013 19.8067 141.013 22.06V29H139.213V22.16C139.213 21.5333 139.133 21.0533 138.973 20.72C138.813 20.3733 138.5 20.2 138.033 20.2C137.566 20.2 137.073 20.3267 136.553 20.58C136.033 20.8333 135.593 21.1267 135.233 21.46C135.26 21.62 135.273 21.8467 135.273 22.14ZM147.609 29.26C146.115 29.26 145.002 28.7533 144.269 27.74C143.549 26.7133 143.189 25.4333 143.189 23.9C143.189 22.3533 143.575 21.1 144.349 20.14C145.122 19.1667 146.182 18.68 147.529 18.68C148.662 18.68 149.522 19 150.109 19.64C150.709 20.2667 151.009 21.1 151.009 22.14C151.009 22.6067 150.909 23.2067 150.709 23.94H144.829C144.855 25.0733 145.102 25.9933 145.569 26.7C146.035 27.4067 146.729 27.76 147.649 27.76C148.582 27.76 149.462 27.5733 150.289 27.2L150.749 28.44C149.789 28.9867 148.742 29.26 147.609 29.26ZM149.369 22.48C149.369 21.76 149.222 21.1933 148.929 20.78C148.635 20.3667 148.229 20.16 147.709 20.16C147.189 20.16 146.755 20.2533 146.409 20.44C146.075 20.6133 145.815 20.84 145.629 21.12C145.309 21.6533 145.109 22.1467 145.029 22.6L149.369 22.64V22.48Z" fill="#EDD2CB"/>
<path d="M84.118 47.868C84.118 48.84 83.77 49.644 83.074 50.28C82.378 50.916 81.46 51.234 80.32 51.234C79.708 51.234 79.054 51.168 78.358 51.036C77.674 50.904 77.122 50.736 76.702 50.532L77.17 49.002C78.346 49.47 79.324 49.704 80.104 49.704C80.884 49.704 81.472 49.536 81.868 49.2C82.264 48.852 82.462 48.414 82.462 47.886C82.462 47.358 82.246 46.908 81.814 46.536C81.382 46.164 80.818 45.81 80.122 45.474C79.438 45.126 78.976 44.88 78.736 44.736C78.496 44.592 78.22 44.376 77.908 44.088C77.308 43.572 77.008 42.828 77.008 41.856C77.008 40.884 77.35 40.122 78.034 39.57C78.718 39.018 79.552 38.742 80.536 38.742C81.532 38.742 82.552 38.934 83.596 39.318L83.128 40.758C82.216 40.434 81.406 40.272 80.698 40.272C80.002 40.272 79.486 40.416 79.15 40.704C78.826 40.98 78.664 41.346 78.664 41.802C78.664 42.258 78.856 42.648 79.24 42.972C79.624 43.284 80.128 43.608 80.752 43.944C81.376 44.268 81.832 44.526 82.12 44.718C82.42 44.91 82.744 45.156 83.092 45.456C83.776 46.08 84.118 46.884 84.118 47.868ZM92.0962 50.082C91.4002 50.85 90.4882 51.234 89.3602 51.234C88.2322 51.234 87.3322 50.856 86.6602 50.1C85.9882 49.344 85.6522 48.144 85.6522 46.5C85.6522 44.844 86.0002 43.632 86.6962 42.864C87.4042 42.096 88.3222 41.712 89.4502 41.712C90.5782 41.712 91.4722 42.09 92.1322 42.846C92.8042 43.602 93.1402 44.808 93.1402 46.464C93.1402 48.108 92.7922 49.314 92.0962 50.082ZM89.4142 43.044C88.0102 43.044 87.3082 44.19 87.3082 46.482C87.3082 48.762 88.0042 49.902 89.3962 49.902C89.9722 49.902 90.4642 49.632 90.8722 49.092C91.2802 48.552 91.4842 47.652 91.4842 46.392C91.4842 45.132 91.3042 44.262 90.9442 43.782C90.5962 43.29 90.0862 43.044 89.4142 43.044ZM95.2068 38.4H96.8448V49.164C96.8448 49.632 97.0608 49.866 97.4928 49.866C97.8288 49.866 98.1828 49.806 98.5548 49.686L98.8248 50.874C98.3328 51.114 97.7268 51.234 97.0068 51.234C95.8068 51.234 95.2068 50.55 95.2068 49.182V38.4ZM102.526 51.234C101.542 51.234 100.858 50.97 100.474 50.442C100.09 49.902 99.8981 49.134 99.8981 48.138V41.892H101.518V48.102C101.518 48.702 101.596 49.146 101.752 49.434C101.908 49.71 102.22 49.848 102.688 49.848C103.168 49.848 103.63 49.776 104.074 49.632C104.53 49.476 104.902 49.266 105.19 49.002V41.946H106.81V51.162H105.496L105.316 50.19C104.968 50.478 104.542 50.724 104.038 50.928C103.534 51.132 103.03 51.234 102.526 51.234ZM112.402 51.234C111.466 51.234 110.848 51.042 110.548 50.658C110.248 50.262 110.098 49.59 110.098 48.642V43.17L108.316 43.08L108.478 42.018L110.134 41.892L110.296 39.732L111.754 39.462V41.892H114.418L114.256 43.17H111.736V48.804C111.736 49.056 111.742 49.248 111.754 49.38C111.778 49.5 111.844 49.614 111.952 49.722C112.072 49.818 112.324 49.866 112.708 49.866C113.092 49.866 113.476 49.8 113.86 49.668L114.166 50.874C113.602 51.114 113.014 51.234 112.402 51.234ZM117.516 51H115.878V41.964L117.516 41.802V51ZM115.554 39.21C115.554 38.91 115.662 38.658 115.878 38.454C116.094 38.238 116.352 38.13 116.652 38.13C116.952 38.13 117.204 38.238 117.408 38.454C117.624 38.658 117.732 38.91 117.732 39.21C117.732 39.51 117.624 39.774 117.408 40.002C117.204 40.218 116.952 40.326 116.652 40.326C116.352 40.326 116.094 40.218 115.878 40.002C115.662 39.774 115.554 39.51 115.554 39.21ZM125.987 50.082C125.291 50.85 124.379 51.234 123.251 51.234C122.123 51.234 121.223 50.856 120.551 50.1C119.879 49.344 119.543 48.144 119.543 46.5C119.543 44.844 119.891 43.632 120.587 42.864C121.295 42.096 122.213 41.712 123.341 41.712C124.469 41.712 125.363 42.09 126.023 42.846C126.695 43.602 127.031 44.808 127.031 46.464C127.031 48.108 126.683 49.314 125.987 50.082ZM123.305 43.044C121.901 43.044 121.199 44.19 121.199 46.482C121.199 48.762 121.895 49.902 123.287 49.902C123.863 49.902 124.355 49.632 124.763 49.092C125.171 48.552 125.375 47.652 125.375 46.392C125.375 45.132 125.195 44.262 124.835 43.782C124.487 43.29 123.977 43.044 123.305 43.044ZM136.027 44.754V51H134.407V44.844C134.407 44.292 134.335 43.86 134.191 43.548C134.047 43.236 133.753 43.08 133.309 43.08C132.877 43.08 132.403 43.2 131.887 43.44C131.383 43.668 130.987 43.95 130.699 44.286V51H129.079V41.892H130.429L130.609 42.99C130.945 42.666 131.395 42.372 131.959 42.108C132.535 41.844 133.087 41.712 133.615 41.712C134.515 41.712 135.139 41.982 135.487 42.522C135.847 43.05 136.027 43.794 136.027 44.754ZM138.269 49.344C139.061 49.692 139.787 49.866 140.447 49.866C141.107 49.866 141.587 49.746 141.887 49.506C142.199 49.254 142.355 48.948 142.355 48.588C142.355 48.216 142.205 47.904 141.905 47.652C141.617 47.4 141.263 47.202 140.843 47.058C140.423 46.902 139.997 46.74 139.565 46.572C139.145 46.404 138.785 46.14 138.485 45.78C138.197 45.408 138.053 44.946 138.053 44.394C138.053 43.578 138.341 42.93 138.917 42.45C139.493 41.958 140.273 41.712 141.257 41.712C142.241 41.712 143.033 41.886 143.633 42.234L143.255 43.44C142.559 43.2 141.917 43.08 141.329 43.08C140.741 43.08 140.303 43.188 140.015 43.404C139.727 43.62 139.583 43.914 139.583 44.286C139.583 44.646 139.733 44.946 140.033 45.186C140.333 45.426 140.693 45.618 141.113 45.762C141.545 45.906 141.971 46.068 142.391 46.248C142.811 46.416 143.171 46.68 143.471 47.04C143.771 47.4 143.921 47.85 143.921 48.39C143.921 49.182 143.627 49.854 143.039 50.406C142.451 50.958 141.611 51.234 140.519 51.234C140.015 51.234 139.505 51.168 138.989 51.036C138.485 50.904 138.107 50.748 137.855 50.568L138.269 49.344Z" fill="#F55951"/>
</svg>
