<svg width="24" height="24" viewBox="0 0 24 24" fill="none" xmlns="http://www.w3.org/2000/svg">
<path d="M22.5938 0H1.40625C0.630844 0 0 0.630844 0 1.40625V22.5938C0 23.3692 0.630844 24 1.40625 24H22.5938C23.3692 24 24 23.3692 24 22.5938V1.40625C24 0.630844 23.3692 0 22.5938 0ZM23.0625 22.5938C23.0625 22.8522 22.8522 23.0625 22.5938 23.0625H1.40625C1.14778 23.0625 0.9375 22.8522 0.9375 22.5938V1.40625C0.9375 1.14778 1.14778 0.9375 1.40625 0.9375H22.5938C22.8522 0.9375 23.0625 1.14778 23.0625 1.40625V22.5938Z" fill="black"/>
<path d="M18.8784 11.8092C18.7912 11.722 18.6703 11.6719 18.547 11.6719C18.4232 11.6719 18.3028 11.722 18.2156 11.8092C18.1279 11.8964 18.0782 12.0173 18.0782 12.1406C18.0782 12.2639 18.1279 12.3848 18.2156 12.472C18.3028 12.5592 18.4232 12.6094 18.547 12.6094C18.6703 12.6094 18.7912 12.5592 18.8784 12.472C18.9656 12.3848 19.0157 12.2639 19.0157 12.1406C19.0157 12.0173 18.9656 11.8965 18.8784 11.8092Z" fill="black"/>
<path d="M19.0157 16.5847V14.5468C19.0157 14.288 18.8058 14.0781 18.5469 14.0781C18.288 14.0781 18.0782 14.288 18.0782 14.5468V16.7656C18.0782 16.882 18.1215 16.9943 18.1998 17.0806L18.8637 17.8125H14.7958L15.4941 17.011C15.5684 16.9256 15.6094 16.8163 15.6094 16.7031V8.54978C15.6094 8.51659 15.6058 8.48425 15.5993 8.45303L16.398 6.41402H18.8918L18.2155 7.09037C18.1276 7.17831 18.0782 7.29752 18.0782 7.42183V9.51559C18.0782 9.77444 18.288 9.98434 18.5469 9.98434C18.8058 9.98434 19.0157 9.77444 19.0157 9.51559V7.61603L20.3549 6.27677C20.489 6.1427 20.5291 5.94109 20.4565 5.76592C20.384 5.5908 20.213 5.47656 20.0234 5.47656H16.0782C15.8808 5.47656 15.7123 5.59867 15.6432 5.77131C15.6427 5.77244 15.6422 5.77319 15.6417 5.77436L12.809 13.0061L9.47225 5.803C9.39551 5.63725 9.22953 5.53122 9.0469 5.53122H4.31253C4.12751 5.53122 3.95979 5.64006 3.88442 5.80905C3.80904 5.97803 3.84017 6.17552 3.96378 6.31319L6.11722 8.71084V15.2582L3.94559 17.9895C3.83361 18.1304 3.81214 18.3228 3.89033 18.4849C3.96856 18.647 4.13262 18.75 4.31253 18.75H8.98442C9.16658 18.75 9.33223 18.6445 9.40925 18.4794C9.48626 18.3143 9.46062 18.1195 9.34357 17.98L7.05472 15.2513V10.6292L10.7478 18.4807C10.8251 18.6451 10.9903 18.75 11.1719 18.75H11.2461C11.439 18.75 11.6122 18.6318 11.6826 18.4522L14.6719 10.8206V16.5275L13.4122 17.9733C13.2915 18.1119 13.2629 18.3082 13.339 18.4754C13.4151 18.6426 13.5819 18.75 13.7656 18.75H19.9219C20.1074 18.75 20.2754 18.6407 20.3505 18.4711C20.4256 18.3015 20.3937 18.1036 20.2691 17.9663L19.0157 16.5847ZM7.97942 17.8125H5.28411L6.59567 16.1628L7.97942 17.8125ZM11.1731 17.1824L7.01014 8.33177C6.99068 8.29037 6.96528 8.25208 6.93472 8.21805L5.36361 6.46872H8.74742L12.313 14.1657C12.3202 14.1814 12.3282 14.1965 12.337 14.211L11.1731 17.1824Z" fill="black"/>
<path d="M14.9766 2.25H11.1562C10.8974 2.25 10.6875 2.45991 10.6875 2.71875C10.6875 2.97759 10.8974 3.1875 11.1562 3.1875H14.9766C15.2355 3.1875 15.4453 2.97759 15.4453 2.71875C15.4453 2.45991 15.2355 2.25 14.9766 2.25Z" fill="black"/>
<path d="M9.02897 2.25H9.02344C8.76455 2.25 8.55469 2.45991 8.55469 2.71875C8.55469 2.97759 8.76455 3.1875 9.02344 3.1875H9.02897C9.28786 3.1875 9.49772 2.97759 9.49772 2.71875C9.49772 2.45991 9.28786 2.25 9.02897 2.25Z" fill="black"/>
</svg>
