<svg width="241" height="468" viewBox="0 0 241 468" fill="none" xmlns="http://www.w3.org/2000/svg">
<path d="M211.069 0H29.9306C13.4004 0 0 13.4004 0 29.9306V437.276C0 453.806 13.4004 467.206 29.9306 467.206H211.069C227.6 467.206 241 453.806 241 437.276V29.9306C241 13.4004 227.6 0 211.069 0Z" fill="black"/>
<path d="M229.45 40.3884H11.5459V426.822H229.45V40.3884Z" fill="white"/>
<path d="M129.313 434.189H111.682C107.101 434.189 103.387 437.903 103.387 442.484V449.401C103.387 453.982 107.101 457.696 111.682 457.696H129.313C133.894 457.696 137.608 453.982 137.608 449.401V442.484C137.608 437.903 133.894 434.189 129.313 434.189Z" fill="black" stroke="#333333" stroke-width="0.25" stroke-miterlimit="10"/>
<path d="M140.665 17.9443H100.308C99.7906 18.0567 99.3277 18.3427 98.9956 18.7547C98.6636 19.1666 98.4824 19.6797 98.4824 20.2088C98.4824 20.7379 98.6636 21.251 98.9956 21.6629C99.3277 22.0749 99.7906 22.3607 100.308 22.473H140.65C141.167 22.3607 141.631 22.0749 141.963 21.6629C142.295 21.251 142.475 20.7379 142.475 20.2088C142.475 19.6797 142.295 19.1666 141.963 18.7547C141.631 18.3427 141.167 18.0567 140.65 17.9443H140.665Z" fill="#1E1E1E"/>
<path opacity="0.2" d="M240.996 437.28V29.9308C240.996 26.0004 240.222 22.1085 238.719 18.4771C237.215 14.8458 235.01 11.5461 232.231 8.76672C229.452 5.98735 226.153 3.78272 222.522 2.27852C218.891 0.774315 214.999 -3.12509e-08 211.069 0H207.14L142.497 467.207H211.069C219.006 467.207 226.618 464.053 232.23 458.441C237.842 452.829 240.996 445.217 240.996 437.28V437.28Z" fill="url(#paint0_linear)"/>
<defs>
<linearGradient id="paint0_linear" x1="142.497" y1="233.603" x2="240.996" y2="233.603" gradientUnits="userSpaceOnUse">
<stop stop-color="white"/>
<stop offset="1" stop-color="#E8E8E8"/>
</linearGradient>
</defs>
</svg>
