<svg width="24" height="31" viewBox="0 0 24 31" fill="none" xmlns="http://www.w3.org/2000/svg">
<g filter="url(#filter0_d)">
<path d="M7 5H17V7H19V3C19 1.9 18.1 1.01 17 1.01L7 1C5.9 1 5 1.9 5 3V7H7V5ZM15.41 16.59L20 12L15.41 7.41L14 8.83L17.17 12L14 15.17L15.41 16.59ZM10 15.17L6.83 12L10 8.83L8.59 7.41L4 12L8.59 16.59L10 15.17ZM17 19H7V17H5V21C5 22.1 5.9 23 7 23H17C18.1 23 19 22.1 19 21V17H17V19Z" fill="#361D32"/>
</g>
<defs>
<filter id="filter0_d" x="-4" y="0" width="32" height="32" filterUnits="userSpaceOnUse" color-interpolation-filters="sRGB">
<feFlood flood-opacity="0" result="BackgroundImageFix"/>
<feColorMatrix in="SourceAlpha" type="matrix" values="0 0 0 0 0 0 0 0 0 0 0 0 0 0 0 0 0 0 127 0"/>
<feOffset dy="4"/>
<feGaussianBlur stdDeviation="2"/>
<feColorMatrix type="matrix" values="0 0 0 0 0 0 0 0 0 0 0 0 0 0 0 0 0 0 0.25 0"/>
<feBlend mode="normal" in2="BackgroundImageFix" result="effect1_dropShadow"/>
<feBlend mode="normal" in="SourceGraphic" in2="effect1_dropShadow" result="shape"/>
</filter>
</defs>
</svg>
