<svg width="88" height="78" viewBox="0 0 88 78" fill="none" xmlns="http://www.w3.org/2000/svg">
<path d="M87.4094 38.5394C87.4094 32.807 80.158 27.3744 69.0403 24.0055C71.6059 12.7877 70.4656 3.86276 65.4413 1.00538C64.2832 0.335125 62.9291 0.0176379 61.4503 0.0176379V3.95095C62.2699 3.95095 62.9291 4.10969 63.4814 4.40954C65.9045 5.78532 66.9557 11.0239 66.1361 17.7616C65.9401 19.4196 65.6194 21.1658 65.2275 22.9473C61.7354 22.1006 57.9225 21.448 53.9138 21.0247C51.5085 17.7616 49.0141 14.7984 46.502 12.2056C52.3102 6.86125 57.7622 3.93331 61.4681 3.93331V0C56.5685 0 50.1544 3.45708 43.6691 9.45406C37.1837 3.49236 30.7697 0.0705529 25.8701 0.0705529V4.00386C29.5581 4.00386 35.0279 6.91416 40.8362 12.2233C38.3418 14.8161 35.8475 17.7616 33.4778 21.0247C29.4512 21.448 25.6384 22.1006 22.1463 22.9649C21.7365 21.2011 21.4337 19.4902 21.2199 17.8498C20.3825 11.112 21.4158 5.87351 23.8211 4.48009C24.3556 4.16261 25.0505 4.0215 25.8701 4.0215V0.0881908C24.3734 0.0881908 23.0194 0.405678 21.8434 1.07593C16.8369 3.93331 15.7145 12.8406 18.2979 24.0232C7.21582 27.4097 0 32.8246 0 38.5394C0 44.2718 7.25145 49.7044 18.3692 53.0732C15.8035 64.2911 16.9438 73.216 21.9682 76.0734C23.1263 76.7437 24.4803 77.0612 25.977 77.0612C30.8766 77.0612 37.2906 73.6041 43.776 67.6071C50.2613 73.5688 56.6754 76.9906 61.575 76.9906C63.0716 76.9906 64.4257 76.6731 65.6016 76.0029C70.6081 73.1455 71.7306 64.2382 69.1472 53.0556C80.1936 49.6867 87.4094 44.2542 87.4094 38.5394ZM64.2119 26.7747C63.5527 29.0501 62.7331 31.3959 61.8066 33.7418C61.0761 32.3308 60.31 30.9197 59.4726 29.5087C58.653 28.0976 57.78 26.7218 56.907 25.3813C59.437 25.7517 61.8779 26.2103 64.2119 26.7747ZM56.0518 45.5594C54.6621 47.9405 53.2367 50.1982 51.7579 52.2972C49.1032 52.5265 46.4129 52.6499 43.7047 52.6499C41.0144 52.6499 38.324 52.5265 35.6871 52.3148C34.2083 50.2159 32.7652 47.9758 31.3755 45.6123C30.0214 43.3017 28.792 40.9558 27.6696 38.5923C28.7742 36.2288 30.0214 33.8653 31.3576 31.5547C32.7474 29.1735 34.1727 26.9158 35.6515 24.8169C38.3062 24.5876 40.9966 24.4641 43.7047 24.4641C46.3951 24.4641 49.0854 24.5876 51.7223 24.7993C53.2011 26.8982 54.6443 29.1383 56.034 31.5018C57.388 33.8124 58.6174 36.1582 59.7399 38.5218C58.6174 40.8853 57.388 43.2488 56.0518 45.5594ZM61.8066 43.2664C62.7687 45.6299 63.5883 47.9935 64.2654 50.2864C61.9313 50.8508 59.4726 51.3271 56.9248 51.6975C57.7978 50.3393 58.6709 48.9459 59.4904 47.5172C60.31 46.1062 61.0761 44.6775 61.8066 43.2664ZM43.7403 62.0863C42.0834 60.3931 40.4264 58.5058 38.7873 56.4421C40.3908 56.5127 42.0299 56.5656 43.6869 56.5656C45.3617 56.5656 47.0186 56.5303 48.64 56.4421C47.0365 58.5058 45.3795 60.3931 43.7403 62.0863ZM30.4846 51.6975C27.9546 51.3271 25.5137 50.8685 23.1797 50.3041C23.8389 48.0287 24.6585 45.6829 25.585 43.337C26.3155 44.748 27.0816 46.1591 27.919 47.5701C28.7564 48.9812 29.6116 50.357 30.4846 51.6975ZM43.6513 14.9924C45.3082 16.6857 46.9652 18.573 48.6043 20.6367C47.0008 20.5661 45.3617 20.5132 43.7047 20.5132C42.0299 20.5132 40.373 20.5485 38.7516 20.6367C40.3551 18.573 42.0121 16.6857 43.6513 14.9924ZM30.4668 25.3813C29.5938 26.7395 28.7207 28.1329 27.9012 29.5616C27.0816 30.9726 26.3155 32.3837 25.585 33.7947C24.6229 31.4312 23.8033 29.0677 23.1263 26.7747C25.4603 26.228 27.919 25.7517 30.4668 25.3813ZM14.3426 47.4643C8.0354 44.8009 3.95534 41.3086 3.95534 38.5394C3.95534 35.7702 8.0354 32.2602 14.3426 29.6145C15.8748 28.9619 17.5496 28.3798 19.2778 27.833C20.2934 31.2901 21.6296 34.8883 23.2866 38.5747C21.6475 42.2434 20.329 45.824 19.3313 49.2634C17.5674 48.7166 15.8926 48.1169 14.3426 47.4643ZM23.928 72.6693C21.5049 71.2935 20.4537 66.0549 21.2733 59.3172C21.4693 57.6592 21.79 55.913 22.182 54.1315C25.6741 54.9782 29.4869 55.6308 33.4957 56.0541C35.9009 59.3172 38.3953 62.2804 40.9075 64.8732C35.0992 70.2175 29.6472 73.1455 25.9413 73.1455C25.1396 73.1278 24.4625 72.9691 23.928 72.6693ZM66.1896 59.229C67.027 65.9667 65.9936 71.2053 63.5883 72.5987C63.0538 72.9162 62.3589 73.0573 61.5394 73.0573C57.8513 73.0573 52.3815 70.147 46.5732 64.8379C49.0676 62.2451 51.5619 59.2995 53.9316 56.0365C57.9582 55.6131 61.771 54.9605 65.2631 54.0963C65.6729 55.8777 65.9936 57.5886 66.1896 59.229ZM73.049 47.4643C71.5168 48.1169 69.842 48.699 68.1138 49.2458C67.0982 45.7887 65.762 42.1905 64.105 38.5041C65.7441 34.8354 67.0626 31.2548 68.0603 27.8154C69.8242 28.3622 71.499 28.9619 73.0669 29.6145C79.374 32.2778 83.4541 35.7702 83.4541 38.5394C83.4363 41.3086 79.3562 44.8186 73.049 47.4643Z" fill="#61DAFB"/>
</svg>
