<svg width="90" height="90" viewBox="0 0 90 90" fill="none" xmlns="http://www.w3.org/2000/svg">
<g clip-path="url(#clip0)">
<path d="M9.714 5.05579C7.58266 5.05579 5.84888 6.79025 5.84888 8.92091C5.84888 11.0523 7.58266 12.7867 9.714 12.7867C11.8454 12.7867 13.5798 11.0523 13.5798 8.92091C13.5798 6.79025 11.8454 5.05579 9.714 5.05579ZM9.714 10.1521C9.0356 10.1521 8.48285 9.60001 8.48285 8.92091C8.48285 8.24251 9.0356 7.69044 9.714 7.69044C10.3931 7.69044 10.9452 8.24251 10.9452 8.92091C10.9452 9.60001 10.3931 10.1521 9.714 10.1521Z" fill="#F1E8E6"/>
<path d="M19.5558 5.05579C17.4244 5.05579 15.6899 6.79025 15.6899 8.92091C15.6899 11.0523 17.4244 12.7867 19.5558 12.7867C21.6871 12.7867 23.4209 11.0523 23.4209 8.92091C23.4209 6.79025 21.6871 5.05579 19.5558 5.05579ZM19.5558 10.1521C18.8767 10.1521 18.3246 9.60001 18.3246 8.92091C18.3246 8.24251 18.8767 7.69044 19.5558 7.69044C20.2342 7.69044 20.7869 8.24251 20.7869 8.92091C20.7869 9.60001 20.2342 10.1521 19.5558 10.1521Z" fill="#F1E8E6"/>
<path d="M29.3966 5.05579C27.2653 5.05579 25.5315 6.79025 25.5315 8.92091C25.5315 11.0523 27.2653 12.7867 29.3966 12.7867C31.528 12.7867 33.2624 11.0523 33.2624 8.92091C33.2624 6.79025 31.528 5.05579 29.3966 5.05579ZM29.3966 10.1521C28.7182 10.1521 28.1655 9.60001 28.1655 8.92091C28.1655 8.24251 28.7182 7.69044 29.3966 7.69044C30.0757 7.69044 30.6278 8.24251 30.6278 8.92091C30.6278 9.60001 30.0757 10.1521 29.3966 10.1521Z" fill="#F1E8E6"/>
<path d="M88.5826 25.9847C89.3104 25.9847 89.9003 25.3948 89.9003 24.667L89.9998 5.79665C89.9998 2.60032 87.3995 0 84.2032 0H5.79734C2.60101 0 0 2.60101 0 5.79734V69.5296C0 72.4265 2.13615 74.8339 4.91569 75.2596C5.20339 75.3043 5.49796 75.3269 5.79734 75.3269H31.427V80.051H27.45C24.7975 80.051 22.6387 82.2092 22.6387 84.8617V87.7078C22.6387 88.9184 23.6233 89.903 24.8339 89.903H31.1153C31.8424 89.903 32.4323 89.3132 32.4323 88.5853C32.4323 87.8582 31.8424 87.2684 31.1153 87.2684H25.2733V84.8617C25.2733 83.6614 26.2497 82.685 27.45 82.685H62.4503C63.6505 82.685 64.6269 83.6614 64.6269 84.8617V87.2684H39.2925C38.5654 87.2684 37.9755 87.8582 37.9755 88.5853C37.9755 89.3132 38.5654 89.903 39.2925 89.903H65.0657C66.2763 89.903 67.2609 88.9184 67.2609 87.7078V84.8617C67.2609 82.2092 65.1028 80.051 62.4496 80.051H58.4726V75.3269H84.1029C84.4023 75.3269 84.6969 75.3043 84.9839 75.2596C87.7641 74.8339 89.8996 72.4265 89.8996 69.5296V32.834C89.8996 32.1061 89.3104 31.5163 88.5826 31.5163C87.8554 31.5163 87.2656 32.1061 87.2656 32.834V61.8989H46.0917V17.9173H87.2656V24.667C87.2656 25.3948 87.8554 25.9847 88.5826 25.9847ZM2.73147 17.9173H43.457V61.8042H2.73147V17.9173ZM55.8386 80.051H34.0617V75.3269H55.8386V80.051ZM87.2656 64.5336V69.5296C87.2656 71.1645 86.0187 72.5137 84.4256 72.6765C84.3192 72.6868 84.2121 72.6923 84.1029 72.6923H5.79734C5.68816 72.6923 5.58036 72.6868 5.47461 72.6765C3.8816 72.5137 2.63465 71.1645 2.63465 69.5296V64.5336H87.2656ZM44.7747 15.2826H2.73147V5.79665C2.73147 4.05326 4.15008 2.63465 5.89415 2.63465H84.1029C85.847 2.63465 87.2656 4.05326 87.2656 5.79734V15.2826H44.7747Z" fill="#F1E8E6"/>
<path d="M8.24516 23.1667H14.9187C15.6458 23.1667 16.2357 22.5776 16.2357 21.8498C16.2357 21.1226 15.6458 20.5328 14.9187 20.5328H8.24516C7.51732 20.5328 6.92749 21.1226 6.92749 21.8498C6.92749 22.5776 7.51732 23.1667 8.24516 23.1667Z" fill="#F1E8E6"/>
<path d="M19.485 23.1667H22.6463C23.3734 23.1667 23.9633 22.5776 23.9633 21.8498C23.9633 21.1226 23.3734 20.5328 22.6463 20.5328H19.485C18.7571 20.5328 18.168 21.1226 18.168 21.8498C18.168 22.5776 18.7571 23.1667 19.485 23.1667Z" fill="#F1E8E6"/>
<path d="M18.2552 25.182H13.8648C13.1377 25.182 12.5479 25.7718 12.5479 26.4997C12.5479 27.2268 13.1377 27.8167 13.8648 27.8167H18.2552C18.9831 27.8167 19.5729 27.2268 19.5729 26.4997C19.5729 25.7718 18.9831 25.182 18.2552 25.182Z" fill="#F1E8E6"/>
<path d="M38.9789 29.9982H34.5885C33.8613 29.9982 33.2715 30.588 33.2715 31.3152C33.2715 32.0423 33.8613 32.6321 34.5885 32.6321H38.9789C39.7067 32.6321 40.2959 32.0423 40.2959 31.3152C40.2959 30.588 39.7067 29.9982 38.9789 29.9982Z" fill="#F1E8E6"/>
<path d="M20.9778 26.4997C20.9778 27.2268 21.5676 27.8167 22.2948 27.8167H32.832C33.5599 27.8167 34.1497 27.2268 34.1497 26.4997C34.1497 25.7718 33.5599 25.182 32.832 25.182H22.2948C21.5676 25.182 20.9778 25.7718 20.9778 26.4997Z" fill="#F1E8E6"/>
<path d="M16.7625 31.3152C16.7625 32.0423 17.3523 32.6321 18.0801 32.6321H20.3632C21.0904 32.6321 21.6802 32.0423 21.6802 31.3152C21.6802 30.588 21.0904 29.9982 20.3632 29.9982H18.0801C17.3523 29.9982 16.7625 30.588 16.7625 31.3152Z" fill="#F1E8E6"/>
<path d="M30.5488 32.6321C31.2766 32.6321 31.8665 32.0423 31.8665 31.3152C31.8665 30.588 31.2766 29.9982 30.5488 29.9982H24.2269C23.499 29.9982 22.9092 30.588 22.9092 31.3152C22.9092 32.0423 23.499 32.6321 24.2269 32.6321H30.5488Z" fill="#F1E8E6"/>
<path d="M16.2357 48.3872C16.2357 47.6594 15.6458 47.0703 14.9187 47.0703H8.24516C7.51732 47.0703 6.92749 47.6594 6.92749 48.3872C6.92749 49.1144 7.51732 49.7042 8.24516 49.7042H14.9187C15.6458 49.7042 16.2357 49.1144 16.2357 48.3872Z" fill="#F1E8E6"/>
<path d="M19.485 47.0703C18.7571 47.0703 18.168 47.6594 18.168 48.3872C18.168 49.1144 18.7571 49.7042 19.485 49.7042H22.6463C23.3734 49.7042 23.9633 49.1144 23.9633 48.3872C23.9633 47.6594 23.3734 47.0703 22.6463 47.0703H19.485Z" fill="#F1E8E6"/>
<path d="M19.5729 53.0365C19.5729 52.3093 18.9831 51.7195 18.2552 51.7195H13.8648C13.1377 51.7195 12.5479 52.3093 12.5479 53.0365C12.5479 53.7643 13.1377 54.3541 13.8648 54.3541H18.2552C18.9831 54.3541 19.5729 53.7643 19.5729 53.0365Z" fill="#F1E8E6"/>
<path d="M20.3632 56.5356H18.0801C17.3523 56.5356 16.7625 57.1248 16.7625 57.8526C16.7625 58.5798 17.3523 59.1696 18.0801 59.1696H20.3632C21.0904 59.1696 21.6802 58.5798 21.6802 57.8526C21.6802 57.1248 21.0904 56.5356 20.3632 56.5356Z" fill="#F1E8E6"/>
<path d="M38.9789 56.5356H34.5885C33.8613 56.5356 33.2715 57.1248 33.2715 57.8526C33.2715 58.5798 33.8613 59.1696 34.5885 59.1696H38.9789C39.7067 59.1696 40.2959 58.5798 40.2959 57.8526C40.2959 57.1248 39.7067 56.5356 38.9789 56.5356Z" fill="#F1E8E6"/>
<path d="M34.1497 53.0365C34.1497 52.3093 33.5599 51.7195 32.832 51.7195H22.2948C21.5676 51.7195 20.9778 52.3093 20.9778 53.0365C20.9778 53.7643 21.5676 54.3541 22.2948 54.3541H32.832C33.5599 54.3541 34.1497 53.7643 34.1497 53.0365Z" fill="#F1E8E6"/>
<path d="M30.5488 56.5356H24.2269C23.499 56.5356 22.9092 57.1248 22.9092 57.8526C22.9092 58.5798 23.499 59.1696 24.2269 59.1696H30.5488C31.2766 59.1696 31.8665 58.5798 31.8665 57.8526C31.8665 57.1248 31.2766 56.5356 30.5488 56.5356Z" fill="#F1E8E6"/>
<path d="M8.24516 38.6678H11.9331C12.6603 38.6678 13.2501 38.078 13.2501 37.3508C13.2501 36.623 12.6603 36.0338 11.9331 36.0338H8.24516C7.51732 36.0338 6.92749 36.623 6.92749 37.3508C6.92749 38.078 7.51732 38.6678 8.24516 38.6678Z" fill="#F1E8E6"/>
<path d="M30.461 37.3508C30.461 36.623 29.8718 36.0338 29.144 36.0338H15.6212C14.894 36.0338 14.3042 36.623 14.3042 37.3508C14.3042 38.078 14.894 38.6678 15.6212 38.6678H29.144C29.8718 38.6678 30.461 38.078 30.461 37.3508Z" fill="#F1E8E6"/>
<path d="M28.0029 42C28.0029 41.2729 27.413 40.683 26.6852 40.683H13.8648C13.1377 40.683 12.5479 41.2729 12.5479 42C12.5479 42.7279 13.1377 43.3177 13.8648 43.3177H26.6852C27.413 43.3177 28.0029 42.7279 28.0029 42Z" fill="#F1E8E6"/>
<path d="M30.3738 43.3177H32.832C33.5599 43.3177 34.1497 42.7279 34.1497 42C34.1497 41.2729 33.5599 40.683 32.832 40.683H30.3738C29.646 40.683 29.0562 41.2729 29.0562 42C29.0562 42.7279 29.646 43.3177 30.3738 43.3177Z" fill="#F1E8E6"/>
<path d="M60.2958 50.9155H51.8665C51.1387 50.9155 50.5488 51.5053 50.5488 52.2325C50.5488 52.9603 51.1387 53.5494 51.8665 53.5494H60.2958C61.0236 53.5494 61.6134 52.9603 61.6134 52.2325C61.6134 51.5053 61.0236 50.9155 60.2958 50.9155Z" fill="#F1E8E6"/>
<path d="M81.7218 50.9155H65.0377C64.3105 50.9155 63.7207 51.5053 63.7207 52.2325C63.7207 52.9603 64.3105 53.5494 65.0377 53.5494H81.7218C82.4496 53.5494 83.0395 52.9603 83.0395 52.2325C83.0395 51.5053 82.4496 50.9155 81.7218 50.9155Z" fill="#F1E8E6"/>
<path d="M60.2958 56.0083H51.8665C51.1387 56.0083 50.5488 56.5981 50.5488 57.326C50.5488 58.0531 51.1387 58.643 51.8665 58.643H60.2958C61.0236 58.643 61.6134 58.0531 61.6134 57.326C61.6134 56.5981 61.0236 56.0083 60.2958 56.0083Z" fill="#F1E8E6"/>
<path d="M81.7218 56.0083H65.0377C64.3105 56.0083 63.7207 56.5981 63.7207 57.326C63.7207 58.0531 64.3105 58.643 65.0377 58.643H81.7218C82.4496 58.643 83.0395 58.0531 83.0395 57.326C83.0395 56.5981 82.4496 56.0083 81.7218 56.0083Z" fill="#F1E8E6"/>
<path d="M83.0793 23.9365C83.0793 22.0599 81.5529 20.5328 79.6763 20.5328H53.912C52.0354 20.5328 50.5083 22.0599 50.5083 23.9365V41.7755V41.7769V44.897C50.5083 46.7736 52.0354 48.3007 53.912 48.3007H79.6763C81.5529 48.3007 83.0793 46.7736 83.0793 44.897V23.9365ZM80.4454 44.897C80.4454 45.3214 80.1 45.6661 79.6763 45.6661H53.912C53.4877 45.6661 53.143 45.3214 53.143 44.897V42.3221L62.7903 32.6795L69.4487 40.1832C69.9314 40.7277 70.7643 40.7771 71.3082 40.2944C71.8527 39.8117 71.9021 38.9795 71.4194 38.435L70.8152 37.7545L73.7924 34.7786L80.4454 42.2768V44.897ZM80.4454 38.3073L75.3759 32.5944C74.9961 32.1666 74.4503 31.9112 73.8783 31.894C73.3036 31.8775 72.746 32.0993 72.3416 32.5038L69.0635 35.7797L64.3737 30.4953C63.994 30.0668 63.4481 29.8114 62.8762 29.7949C62.3049 29.7791 61.7439 29.9996 61.3394 30.404L53.143 38.597V23.9365C53.143 23.5121 53.4877 23.1667 53.912 23.1667H79.6763C80.1007 23.1667 80.4454 23.5121 80.4454 23.9365V38.3073Z" fill="#F1E8E6"/>
</g>
<defs>
<clipPath id="clip0">
<rect width="90" height="90" fill="white"/>
</clipPath>
</defs>
</svg>
