<svg width="160" height="160" viewBox="0 0 160 160" fill="none" xmlns="http://www.w3.org/2000/svg">
<circle cx="80" cy="80" r="80" fill="#543C52"/>
<g clip-path="url(#clip0)">
<path d="M44.714 40.0558C42.5827 40.0558 40.8489 41.7903 40.8489 43.9209C40.8489 46.0523 42.5827 47.7867 44.714 47.7867C46.8454 47.7867 48.5798 46.0523 48.5798 43.9209C48.5798 41.7903 46.8454 40.0558 44.714 40.0558ZM44.714 45.1521C44.0356 45.1521 43.4828 44.6 43.4828 43.9209C43.4828 43.2425 44.0356 42.6904 44.714 42.6904C45.3931 42.6904 45.9452 43.2425 45.9452 43.9209C45.9452 44.6 45.3931 45.1521 44.714 45.1521Z" fill="#F1E8E6"/>
<path d="M54.5558 40.0558C52.4244 40.0558 50.6899 41.7903 50.6899 43.9209C50.6899 46.0523 52.4244 47.7867 54.5558 47.7867C56.6871 47.7867 58.4209 46.0523 58.4209 43.9209C58.4209 41.7903 56.6871 40.0558 54.5558 40.0558ZM54.5558 45.1521C53.8767 45.1521 53.3246 44.6 53.3246 43.9209C53.3246 43.2425 53.8767 42.6904 54.5558 42.6904C55.2342 42.6904 55.7869 43.2425 55.7869 43.9209C55.7869 44.6 55.2342 45.1521 54.5558 45.1521Z" fill="#F1E8E6"/>
<path d="M64.3966 40.0558C62.2653 40.0558 60.5315 41.7903 60.5315 43.9209C60.5315 46.0523 62.2653 47.7867 64.3966 47.7867C66.528 47.7867 68.2624 46.0523 68.2624 43.9209C68.2624 41.7903 66.528 40.0558 64.3966 40.0558ZM64.3966 45.1521C63.7182 45.1521 63.1655 44.6 63.1655 43.9209C63.1655 43.2425 63.7182 42.6904 64.3966 42.6904C65.0757 42.6904 65.6278 43.2425 65.6278 43.9209C65.6278 44.6 65.0757 45.1521 64.3966 45.1521Z" fill="#F1E8E6"/>
<path d="M123.583 60.9847C124.31 60.9847 124.9 60.3948 124.9 59.667L125 40.7966C125 37.6003 122.4 35 119.203 35H40.7973C37.601 35 35 37.601 35 40.7973V104.53C35 107.427 37.1362 109.834 39.9157 110.26C40.2034 110.304 40.498 110.327 40.7973 110.327H66.427V115.051H62.45C59.7975 115.051 57.6387 117.209 57.6387 119.862V122.708C57.6387 123.918 58.6233 124.903 59.8339 124.903H66.1153C66.8424 124.903 67.4323 124.313 67.4323 123.585C67.4323 122.858 66.8424 122.268 66.1153 122.268H60.2733V119.862C60.2733 118.661 61.2497 117.685 62.45 117.685H97.4503C98.6505 117.685 99.6269 118.661 99.6269 119.862V122.268H74.2925C73.5654 122.268 72.9755 122.858 72.9755 123.585C72.9755 124.313 73.5654 124.903 74.2925 124.903H100.066C101.276 124.903 102.261 123.918 102.261 122.708V119.862C102.261 117.209 100.103 115.051 97.4496 115.051H93.4726V110.327H119.103C119.402 110.327 119.697 110.304 119.984 110.26C122.764 109.834 124.9 107.427 124.9 104.53V67.834C124.9 67.1061 124.31 66.5163 123.583 66.5163C122.855 66.5163 122.266 67.1061 122.266 67.834V96.8989H81.0917V52.9173H122.266V59.667C122.266 60.3948 122.855 60.9847 123.583 60.9847ZM37.7315 52.9173H78.457V96.8042H37.7315V52.9173ZM90.8386 115.051H69.0617V110.327H90.8386V115.051ZM122.266 99.5336V104.53C122.266 106.164 121.019 107.514 119.426 107.676C119.319 107.687 119.212 107.692 119.103 107.692H40.7973C40.6882 107.692 40.5804 107.687 40.4746 107.676C38.8816 107.514 37.6347 106.164 37.6347 104.53V99.5336H122.266ZM79.7747 50.2826H37.7315V40.7966C37.7315 39.0533 39.1501 37.6347 40.8942 37.6347H119.103C120.847 37.6347 122.266 39.0533 122.266 40.7973V50.2826H79.7747Z" fill="#F1E8E6"/>
<path d="M43.2452 58.1667H49.9187C50.6458 58.1667 51.2357 57.5776 51.2357 56.8498C51.2357 56.1226 50.6458 55.5328 49.9187 55.5328H43.2452C42.5173 55.5328 41.9275 56.1226 41.9275 56.8498C41.9275 57.5776 42.5173 58.1667 43.2452 58.1667Z" fill="#F1E8E6"/>
<path d="M54.485 58.1667H57.6463C58.3734 58.1667 58.9633 57.5776 58.9633 56.8498C58.9633 56.1226 58.3734 55.5328 57.6463 55.5328H54.485C53.7571 55.5328 53.168 56.1226 53.168 56.8498C53.168 57.5776 53.7571 58.1667 54.485 58.1667Z" fill="#F1E8E6"/>
<path d="M53.2552 60.182H48.8648C48.1377 60.182 47.5479 60.7718 47.5479 61.4997C47.5479 62.2268 48.1377 62.8167 48.8648 62.8167H53.2552C53.9831 62.8167 54.5729 62.2268 54.5729 61.4997C54.5729 60.7718 53.9831 60.182 53.2552 60.182Z" fill="#F1E8E6"/>
<path d="M73.9789 64.9982H69.5885C68.8613 64.9982 68.2715 65.588 68.2715 66.3152C68.2715 67.0423 68.8613 67.6321 69.5885 67.6321H73.9789C74.7067 67.6321 75.2959 67.0423 75.2959 66.3152C75.2959 65.588 74.7067 64.9982 73.9789 64.9982Z" fill="#F1E8E6"/>
<path d="M55.9778 61.4997C55.9778 62.2268 56.5676 62.8167 57.2948 62.8167H67.832C68.5599 62.8167 69.1497 62.2268 69.1497 61.4997C69.1497 60.7718 68.5599 60.182 67.832 60.182H57.2948C56.5676 60.182 55.9778 60.7718 55.9778 61.4997Z" fill="#F1E8E6"/>
<path d="M51.7625 66.3152C51.7625 67.0423 52.3523 67.6321 53.0801 67.6321H55.3632C56.0904 67.6321 56.6802 67.0423 56.6802 66.3152C56.6802 65.588 56.0904 64.9982 55.3632 64.9982H53.0801C52.3523 64.9982 51.7625 65.588 51.7625 66.3152Z" fill="#F1E8E6"/>
<path d="M65.5488 67.6321C66.2766 67.6321 66.8665 67.0423 66.8665 66.3152C66.8665 65.588 66.2766 64.9982 65.5488 64.9982H59.2269C58.499 64.9982 57.9092 65.588 57.9092 66.3152C57.9092 67.0423 58.499 67.6321 59.2269 67.6321H65.5488Z" fill="#F1E8E6"/>
<path d="M51.2357 83.3872C51.2357 82.6594 50.6458 82.0703 49.9187 82.0703H43.2452C42.5173 82.0703 41.9275 82.6594 41.9275 83.3872C41.9275 84.1144 42.5173 84.7042 43.2452 84.7042H49.9187C50.6458 84.7042 51.2357 84.1144 51.2357 83.3872Z" fill="#F1E8E6"/>
<path d="M54.485 82.0703C53.7571 82.0703 53.168 82.6594 53.168 83.3872C53.168 84.1144 53.7571 84.7042 54.485 84.7042H57.6463C58.3734 84.7042 58.9633 84.1144 58.9633 83.3872C58.9633 82.6594 58.3734 82.0703 57.6463 82.0703H54.485Z" fill="#F1E8E6"/>
<path d="M54.5729 88.0365C54.5729 87.3093 53.9831 86.7195 53.2552 86.7195H48.8648C48.1377 86.7195 47.5479 87.3093 47.5479 88.0365C47.5479 88.7643 48.1377 89.3541 48.8648 89.3541H53.2552C53.9831 89.3541 54.5729 88.7643 54.5729 88.0365Z" fill="#F1E8E6"/>
<path d="M55.3632 91.5356H53.0801C52.3523 91.5356 51.7625 92.1248 51.7625 92.8526C51.7625 93.5798 52.3523 94.1696 53.0801 94.1696H55.3632C56.0904 94.1696 56.6802 93.5798 56.6802 92.8526C56.6802 92.1248 56.0904 91.5356 55.3632 91.5356Z" fill="#F1E8E6"/>
<path d="M73.9789 91.5356H69.5885C68.8613 91.5356 68.2715 92.1248 68.2715 92.8526C68.2715 93.5798 68.8613 94.1696 69.5885 94.1696H73.9789C74.7067 94.1696 75.2959 93.5798 75.2959 92.8526C75.2959 92.1248 74.7067 91.5356 73.9789 91.5356Z" fill="#F1E8E6"/>
<path d="M69.1497 88.0365C69.1497 87.3093 68.5599 86.7195 67.832 86.7195H57.2948C56.5676 86.7195 55.9778 87.3093 55.9778 88.0365C55.9778 88.7643 56.5676 89.3541 57.2948 89.3541H67.832C68.5599 89.3541 69.1497 88.7643 69.1497 88.0365Z" fill="#F1E8E6"/>
<path d="M65.5488 91.5356H59.2269C58.499 91.5356 57.9092 92.1248 57.9092 92.8526C57.9092 93.5798 58.499 94.1696 59.2269 94.1696H65.5488C66.2766 94.1696 66.8665 93.5798 66.8665 92.8526C66.8665 92.1248 66.2766 91.5356 65.5488 91.5356Z" fill="#F1E8E6"/>
<path d="M43.2452 73.6678H46.9331C47.6603 73.6678 48.2501 73.078 48.2501 72.3508C48.2501 71.623 47.6603 71.0338 46.9331 71.0338H43.2452C42.5173 71.0338 41.9275 71.623 41.9275 72.3508C41.9275 73.078 42.5173 73.6678 43.2452 73.6678Z" fill="#F1E8E6"/>
<path d="M65.461 72.3508C65.461 71.623 64.8718 71.0338 64.144 71.0338H50.6212C49.894 71.0338 49.3042 71.623 49.3042 72.3508C49.3042 73.078 49.894 73.6678 50.6212 73.6678H64.144C64.8718 73.6678 65.461 73.078 65.461 72.3508Z" fill="#F1E8E6"/>
<path d="M63.0029 77C63.0029 76.2729 62.413 75.683 61.6852 75.683H48.8648C48.1377 75.683 47.5479 76.2729 47.5479 77C47.5479 77.7279 48.1377 78.3177 48.8648 78.3177H61.6852C62.413 78.3177 63.0029 77.7279 63.0029 77Z" fill="#F1E8E6"/>
<path d="M65.3738 78.3177H67.832C68.5599 78.3177 69.1497 77.7279 69.1497 77C69.1497 76.2729 68.5599 75.683 67.832 75.683H65.3738C64.646 75.683 64.0562 76.2729 64.0562 77C64.0562 77.7279 64.646 78.3177 65.3738 78.3177Z" fill="#F1E8E6"/>
<path d="M95.2958 85.9155H86.8665C86.1387 85.9155 85.5488 86.5053 85.5488 87.2325C85.5488 87.9603 86.1387 88.5494 86.8665 88.5494H95.2958C96.0236 88.5494 96.6134 87.9603 96.6134 87.2325C96.6134 86.5053 96.0236 85.9155 95.2958 85.9155Z" fill="#F1E8E6"/>
<path d="M116.722 85.9155H100.038C99.3105 85.9155 98.7207 86.5053 98.7207 87.2325C98.7207 87.9603 99.3105 88.5494 100.038 88.5494H116.722C117.45 88.5494 118.039 87.9603 118.039 87.2325C118.039 86.5053 117.45 85.9155 116.722 85.9155Z" fill="#F1E8E6"/>
<path d="M95.2958 91.0083H86.8665C86.1387 91.0083 85.5488 91.5981 85.5488 92.326C85.5488 93.0531 86.1387 93.643 86.8665 93.643H95.2958C96.0236 93.643 96.6134 93.0531 96.6134 92.326C96.6134 91.5981 96.0236 91.0083 95.2958 91.0083Z" fill="#F1E8E6"/>
<path d="M116.722 91.0083H100.038C99.3105 91.0083 98.7207 91.5981 98.7207 92.326C98.7207 93.0531 99.3105 93.643 100.038 93.643H116.722C117.45 93.643 118.039 93.0531 118.039 92.326C118.039 91.5981 117.45 91.0083 116.722 91.0083Z" fill="#F1E8E6"/>
<path d="M118.079 58.9365C118.079 57.0599 116.553 55.5328 114.676 55.5328H88.912C87.0354 55.5328 85.5083 57.0599 85.5083 58.9365V76.7755V76.7769V79.897C85.5083 81.7736 87.0354 83.3007 88.912 83.3007H114.676C116.553 83.3007 118.079 81.7736 118.079 79.897V58.9365ZM115.445 79.897C115.445 80.3214 115.1 80.6661 114.676 80.6661H88.912C88.4877 80.6661 88.143 80.3214 88.143 79.897V77.3221L97.7903 67.6795L104.449 75.1832C104.931 75.7277 105.764 75.7771 106.308 75.2944C106.853 74.8117 106.902 73.9795 106.419 73.435L105.815 72.7545L108.792 69.7786L115.445 77.2768V79.897ZM115.445 73.3073L110.376 67.5944C109.996 67.1666 109.45 66.9112 108.878 66.894C108.304 66.8775 107.746 67.0993 107.342 67.5038L104.064 70.7797L99.3737 65.4953C98.994 65.0668 98.4481 64.8114 97.8762 64.7949C97.3049 64.7791 96.7439 64.9996 96.3394 65.404L88.143 73.597V58.9365C88.143 58.5121 88.4877 58.1667 88.912 58.1667H114.676C115.101 58.1667 115.445 58.5121 115.445 58.9365V73.3073Z" fill="#F1E8E6"/>
</g>
<defs>
<clipPath id="clip0">
<rect x="35" y="35" width="90" height="90" fill="white"/>
</clipPath>
</defs>
</svg>
