<svg width="160" height="160" viewBox="0 0 160 160" fill="none" xmlns="http://www.w3.org/2000/svg">
<circle cx="80" cy="80" r="80" fill="#543C52"/>
<path d="M119.375 65.9375C119.375 64.8186 118.931 63.7456 118.139 62.9544C117.348 62.1632 116.275 61.7188 115.156 61.7188H109.531V47.6562C109.531 46.5374 109.087 45.4643 108.296 44.6731C107.504 43.882 106.431 43.4375 105.312 43.4375H84.2188V42.0312C84.2188 40.9124 83.7743 39.8393 82.9831 39.0481C82.1919 38.257 81.1189 37.8125 80 37.8125C78.8811 37.8125 77.8081 38.257 77.0169 39.0481C76.2257 39.8393 75.7812 40.9124 75.7812 42.0312V43.4375H54.6875C53.5686 43.4375 52.4956 43.882 51.7044 44.6731C50.9132 45.4643 50.4688 46.5374 50.4688 47.6562V61.7188H44.8438C43.7249 61.7188 42.6518 62.1632 41.8606 62.9544C41.0695 63.7456 40.625 64.8186 40.625 65.9375V113.75H37.8125V117.969C37.8125 119.088 38.257 120.161 39.0481 120.952C39.8393 121.743 40.9124 122.188 42.0312 122.188H117.969C119.088 122.188 120.161 121.743 120.952 120.952C121.743 120.161 122.188 119.088 122.188 117.969V113.75H119.375V65.9375ZM78.5938 42.0312C78.5938 41.6583 78.7419 41.3006 79.0056 41.0369C79.2694 40.7732 79.627 40.625 80 40.625C80.373 40.625 80.7306 40.7732 80.9944 41.0369C81.2581 41.3006 81.4062 41.6583 81.4062 42.0312V43.4375H78.5938V42.0312ZM94.0625 46.25V49.0625H65.9375V46.25H94.0625ZM65.9375 51.875H94.0625V54.6875H65.9375V51.875ZM96.875 57.5V51.875H101.094V102.5H58.9062V51.875H63.125V57.5H96.875ZM53.2812 47.6562C53.2812 47.2833 53.4294 46.9256 53.6931 46.6619C53.9569 46.3982 54.3145 46.25 54.6875 46.25H63.125V49.0625H56.0938V105.312H103.906V49.0625H96.875V46.25H105.312C105.685 46.25 106.043 46.3982 106.307 46.6619C106.571 46.9256 106.719 47.2833 106.719 47.6562V106.719C106.719 107.092 106.571 107.449 106.307 107.713C106.043 107.977 105.685 108.125 105.312 108.125H54.6875C54.3145 108.125 53.9569 107.977 53.6931 107.713C53.4294 107.449 53.2812 107.092 53.2812 106.719V47.6562ZM43.4375 65.9375C43.4375 65.5645 43.5857 65.2069 43.8494 64.9431C44.1131 64.6794 44.4708 64.5312 44.8438 64.5312H50.4688V106.719C50.4688 107.838 50.9132 108.911 51.7044 109.702C52.4956 110.493 53.5686 110.938 54.6875 110.938H105.312C106.431 110.938 107.504 110.493 108.296 109.702C109.087 108.911 109.531 107.838 109.531 106.719V64.5312H115.156C115.529 64.5312 115.887 64.6794 116.151 64.9431C116.414 65.2069 116.562 65.5645 116.562 65.9375V113.75H43.4375V65.9375ZM119.375 117.969C119.375 118.342 119.227 118.699 118.963 118.963C118.699 119.227 118.342 119.375 117.969 119.375H42.0312C41.6583 119.375 41.3006 119.227 41.0369 118.963C40.7732 118.699 40.625 118.342 40.625 117.969V116.562H119.375V117.969Z" fill="#F1E8E6"/>
<path d="M65.9376 69.3322L72.5568 62.713L70.5684 60.7245L65.9376 65.3553L64.1193 63.537L62.1309 65.5255L65.9376 69.3322Z" fill="#F1E8E6"/>
<path d="M98.2812 63.125H75.7812V65.9375H98.2812V63.125Z" fill="#F1E8E6"/>
<path d="M65.9376 75.1991L64.1193 73.3808L62.1309 75.3692L65.9376 79.1759L72.5568 72.5567L70.5684 70.5683L65.9376 75.1991Z" fill="#F1E8E6"/>
<path d="M98.2812 72.9688H75.7812V75.7812H98.2812V72.9688Z" fill="#F1E8E6"/>
<path d="M98.2812 82.8125H75.7812V85.625H98.2812V82.8125Z" fill="#F1E8E6"/>
<path d="M98.2812 92.6562H75.7812V95.4688H98.2812V92.6562Z" fill="#F1E8E6"/>
<path d="M65.5255 88.0255L67.3438 86.2072L69.1621 88.0255L71.1506 86.037L69.3323 84.2188L71.1506 82.4005L69.1621 80.412L67.3438 82.2303L65.5255 80.412L63.5371 82.4005L65.3554 84.2188L63.5371 86.037L65.5255 88.0255Z" fill="#F1E8E6"/>
<path d="M65.9376 94.8866L64.1193 93.0683L62.1309 95.0567L65.9376 98.8634L72.5568 92.2442L70.5684 90.2558L65.9376 94.8866Z" fill="#F1E8E6"/>
</svg>
