<svg width="90" height="90" viewBox="0 0 90 90" fill="none" xmlns="http://www.w3.org/2000/svg">
<path d="M84.375 30.9375C84.375 29.8186 83.9305 28.7456 83.1394 27.9544C82.3482 27.1632 81.2751 26.7188 80.1562 26.7188H74.5312V12.6562C74.5312 11.5374 74.0868 10.4643 73.2956 9.67314C72.5044 8.88197 71.4314 8.4375 70.3125 8.4375H49.2188V7.03125C49.2188 5.91237 48.7743 4.83931 47.9831 4.04814C47.1919 3.25697 46.1189 2.8125 45 2.8125C43.8811 2.8125 42.8081 3.25697 42.0169 4.04814C41.2257 4.83931 40.7812 5.91237 40.7812 7.03125V8.4375H19.6875C18.5686 8.4375 17.4956 8.88197 16.7044 9.67314C15.9132 10.4643 15.4688 11.5374 15.4688 12.6562V26.7188H9.84375C8.72487 26.7188 7.65181 27.1632 6.86064 27.9544C6.06947 28.7456 5.625 29.8186 5.625 30.9375V78.75H2.8125V82.9688C2.8125 84.0876 3.25697 85.1607 4.04814 85.9519C4.83931 86.743 5.91237 87.1875 7.03125 87.1875H82.9688C84.0876 87.1875 85.1607 86.743 85.9519 85.9519C86.743 85.1607 87.1875 84.0876 87.1875 82.9688V78.75H84.375V30.9375ZM43.5938 7.03125C43.5938 6.65829 43.7419 6.3006 44.0056 6.03688C44.2694 5.77316 44.627 5.625 45 5.625C45.373 5.625 45.7306 5.77316 45.9944 6.03688C46.2581 6.3006 46.4062 6.65829 46.4062 7.03125V8.4375H43.5938V7.03125ZM59.0625 11.25V14.0625H30.9375V11.25H59.0625ZM30.9375 16.875H59.0625V19.6875H30.9375V16.875ZM61.875 22.5V16.875H66.0938V67.5H23.9062V16.875H28.125V22.5H61.875ZM18.2812 12.6562C18.2812 12.2833 18.4294 11.9256 18.6931 11.6619C18.9569 11.3982 19.3145 11.25 19.6875 11.25H28.125V14.0625H21.0938V70.3125H68.9062V14.0625H61.875V11.25H70.3125C70.6855 11.25 71.0431 11.3982 71.3069 11.6619C71.5706 11.9256 71.7188 12.2833 71.7188 12.6562V71.7188C71.7188 72.0917 71.5706 72.4494 71.3069 72.7131C71.0431 72.9768 70.6855 73.125 70.3125 73.125H19.6875C19.3145 73.125 18.9569 72.9768 18.6931 72.7131C18.4294 72.4494 18.2812 72.0917 18.2812 71.7188V12.6562ZM8.4375 30.9375C8.4375 30.5645 8.58566 30.2069 8.84938 29.9431C9.1131 29.6794 9.47079 29.5312 9.84375 29.5312H15.4688V71.7188C15.4688 72.8376 15.9132 73.9107 16.7044 74.7019C17.4956 75.493 18.5686 75.9375 19.6875 75.9375H70.3125C71.4314 75.9375 72.5044 75.493 73.2956 74.7019C74.0868 73.9107 74.5312 72.8376 74.5312 71.7188V29.5312H80.1562C80.5292 29.5312 80.8869 29.6794 81.1506 29.9431C81.4143 30.2069 81.5625 30.5645 81.5625 30.9375V78.75H8.4375V30.9375ZM84.375 82.9688C84.375 83.3417 84.2268 83.6994 83.9631 83.9631C83.6994 84.2268 83.3417 84.375 82.9688 84.375H7.03125C6.65829 84.375 6.3006 84.2268 6.03688 83.9631C5.77316 83.6994 5.625 83.3417 5.625 82.9688V81.5625H84.375V82.9688Z" fill="#F1E8E6"/>
<path d="M30.9376 34.3322L37.5568 27.713L35.5684 25.7245L30.9376 30.3553L29.1193 28.537L27.1309 30.5255L30.9376 34.3322Z" fill="#F1E8E6"/>
<path d="M63.2812 28.125H40.7812V30.9375H63.2812V28.125Z" fill="#F1E8E6"/>
<path d="M30.9376 40.1991L29.1193 38.3808L27.1309 40.3692L30.9376 44.1759L37.5568 37.5567L35.5684 35.5683L30.9376 40.1991Z" fill="#F1E8E6"/>
<path d="M63.2812 37.9688H40.7812V40.7812H63.2812V37.9688Z" fill="#F1E8E6"/>
<path d="M63.2812 47.8125H40.7812V50.625H63.2812V47.8125Z" fill="#F1E8E6"/>
<path d="M63.2812 57.6562H40.7812V60.4688H63.2812V57.6562Z" fill="#F1E8E6"/>
<path d="M30.5255 53.0255L32.3438 51.2072L34.1621 53.0255L36.1506 51.037L34.3323 49.2188L36.1506 47.4005L34.1621 45.412L32.3438 47.2303L30.5255 45.412L28.5371 47.4005L30.3554 49.2188L28.5371 51.037L30.5255 53.0255Z" fill="#F1E8E6"/>
<path d="M30.9376 59.8866L29.1193 58.0683L27.1309 60.0567L30.9376 63.8634L37.5568 57.2442L35.5684 55.2558L30.9376 59.8866Z" fill="#F1E8E6"/>
</svg>
